<svg width="1920" height="1080" viewBox="0 0 1920 1080" fill="none" xmlns="http://www.w3.org/2000/svg">
<g clip-path="url(#clip0_1_2)">
<rect width="1920" height="1080" fill="#EEEEEE"/>
<g opacity="0.8">
<circle cx="996.225" cy="282.225" r="4.22535" fill="black"/>
<circle cx="1015.66" cy="282.225" r="4.22535" fill="black"/>
<circle cx="1035.1" cy="282.225" r="4.22535" fill="black"/>
<circle cx="996.225" cy="306.732" r="4.22535" fill="black"/>
<circle cx="1015.66" cy="306.732" r="4.22535" fill="black"/>
<circle cx="1035.1" cy="306.732" r="4.22535" fill="black"/>
<circle cx="996.225" cy="331.239" r="4.22535" fill="black"/>
<circle cx="1015.66" cy="331.239" r="4.22535" fill="black"/>
<circle cx="1035.1" cy="331.239" r="4.22535" fill="black"/>
<circle cx="996.225" cy="355.746" r="4.22535" fill="black"/>
<circle cx="1015.66" cy="355.746" r="4.22535" fill="black"/>
<circle cx="1035.1" cy="355.746" r="4.22535" fill="black"/>
<circle cx="1054.54" cy="282.225" r="4.22535" fill="black"/>
<circle cx="1073.97" cy="282.225" r="4.22535" fill="black"/>
<circle cx="1093.41" cy="282.225" r="4.22535" fill="black"/>
<circle cx="1054.54" cy="306.732" r="4.22535" fill="black"/>
<circle cx="1073.97" cy="306.732" r="4.22535" fill="black"/>
<circle cx="1093.41" cy="306.732" r="4.22535" fill="black"/>
<circle cx="1054.54" cy="331.239" r="4.22535" fill="black"/>
<circle cx="1073.97" cy="331.239" r="4.22535" fill="black"/>
<circle cx="1093.41" cy="331.239" r="4.22535" fill="black"/>
<circle cx="1054.54" cy="355.746" r="4.22535" fill="black"/>
<circle cx="1073.97" cy="355.746" r="4.22535" fill="black"/>
<circle cx="1093.41" cy="355.746" r="4.22535" fill="black"/>
<circle cx="1112.85" cy="282.225" r="4.22535" fill="black"/>
<circle cx="1132.28" cy="282.225" r="4.22535" fill="black"/>
<circle cx="1151.72" cy="282.225" r="4.22535" fill="black"/>
<circle cx="1112.85" cy="306.732" r="4.22535" fill="black"/>
<circle cx="1132.28" cy="306.732" r="4.22535" fill="black"/>
<circle cx="1151.72" cy="306.732" r="4.22535" fill="black"/>
<circle cx="1112.85" cy="331.239" r="4.22535" fill="black"/>
<circle cx="1132.28" cy="331.239" r="4.22535" fill="black"/>
<circle cx="1151.72" cy="331.239" r="4.22535" fill="black"/>
<circle cx="1112.85" cy="355.746" r="4.22535" fill="black"/>
<circle cx="1132.28" cy="355.746" r="4.22535" fill="black"/>
<circle cx="1151.72" cy="355.746" r="4.22535" fill="black"/>
<circle cx="1171.15" cy="282.225" r="4.22535" fill="black"/>
<circle cx="1190.59" cy="282.225" r="4.22535" fill="black"/>
<circle cx="1210.03" cy="282.225" r="4.22535" fill="black"/>
<circle cx="1171.15" cy="306.732" r="4.22535" fill="black"/>
<circle cx="1190.59" cy="306.732" r="4.22535" fill="black"/>
<circle cx="1210.03" cy="306.732" r="4.22535" fill="black"/>
<circle cx="1171.15" cy="331.239" r="4.22535" fill="black"/>
<circle cx="1190.59" cy="331.239" r="4.22535" fill="black"/>
<circle cx="1210.03" cy="331.239" r="4.22535" fill="black"/>
<circle cx="1171.15" cy="355.746" r="4.22535" fill="black"/>
<circle cx="1190.59" cy="355.746" r="4.22535" fill="black"/>
<circle cx="1210.03" cy="355.746" r="4.22535" fill="black"/>
<circle cx="996.225" cy="380.254" r="4.22535" fill="black"/>
<circle cx="1015.66" cy="380.254" r="4.22535" fill="black"/>
<circle cx="1035.1" cy="380.254" r="4.22535" fill="black"/>
<circle cx="996.225" cy="404.761" r="4.22535" fill="black"/>
<circle cx="1015.66" cy="404.761" r="4.22535" fill="black"/>
<circle cx="1035.1" cy="404.761" r="4.22535" fill="black"/>
<circle cx="996.225" cy="429.268" r="4.22535" fill="black"/>
<circle cx="1015.66" cy="429.268" r="4.22535" fill="black"/>
<circle cx="1035.1" cy="429.268" r="4.22535" fill="black"/>
<circle cx="996.225" cy="453.775" r="4.22535" fill="black"/>
<circle cx="1015.66" cy="453.775" r="4.22535" fill="black"/>
<circle cx="1035.1" cy="453.775" r="4.22535" fill="black"/>
<circle cx="1054.54" cy="380.254" r="4.22535" fill="black"/>
<circle cx="1073.97" cy="380.254" r="4.22535" fill="black"/>
<circle cx="1093.41" cy="380.254" r="4.22535" fill="black"/>
<circle cx="1054.54" cy="404.761" r="4.22535" fill="black"/>
<circle cx="1073.97" cy="404.761" r="4.22535" fill="black"/>
<circle cx="1093.41" cy="404.761" r="4.22535" fill="black"/>
<circle cx="1054.54" cy="429.268" r="4.22535" fill="black"/>
<circle cx="1073.97" cy="429.268" r="4.22535" fill="black"/>
<circle cx="1093.41" cy="429.268" r="4.22535" fill="black"/>
<circle cx="1054.54" cy="453.775" r="4.22535" fill="black"/>
<circle cx="1073.97" cy="453.775" r="4.22535" fill="black"/>
<circle cx="1093.41" cy="453.775" r="4.22535" fill="black"/>
<circle cx="1112.85" cy="380.254" r="4.22535" fill="black"/>
<circle cx="1132.28" cy="380.254" r="4.22535" fill="black"/>
<circle cx="1151.72" cy="380.254" r="4.22535" fill="black"/>
<circle cx="1112.85" cy="404.761" r="4.22535" fill="black"/>
<circle cx="1132.28" cy="404.761" r="4.22535" fill="black"/>
<circle cx="1151.72" cy="404.761" r="4.22535" fill="black"/>
<circle cx="1112.85" cy="429.268" r="4.22535" fill="black"/>
<circle cx="1132.28" cy="429.268" r="4.22535" fill="black"/>
<circle cx="1151.72" cy="429.268" r="4.22535" fill="black"/>
<circle cx="1112.85" cy="453.775" r="4.22535" fill="black"/>
<circle cx="1132.28" cy="453.775" r="4.22535" fill="black"/>
<circle cx="1151.72" cy="453.775" r="4.22535" fill="black"/>
<circle cx="1171.15" cy="380.254" r="4.22535" fill="black"/>
<circle cx="1190.59" cy="380.254" r="4.22535" fill="black"/>
<circle cx="1210.03" cy="380.254" r="4.22535" fill="black"/>
<circle cx="1171.15" cy="404.761" r="4.22535" fill="black"/>
<circle cx="1190.59" cy="404.761" r="4.22535" fill="black"/>
<circle cx="1210.03" cy="404.761" r="4.22535" fill="black"/>
<circle cx="1171.15" cy="429.268" r="4.22535" fill="black"/>
<circle cx="1190.59" cy="429.268" r="4.22535" fill="black"/>
<circle cx="1210.03" cy="429.268" r="4.22535" fill="black"/>
<circle cx="1171.15" cy="453.775" r="4.22535" fill="black"/>
<circle cx="1190.59" cy="453.775" r="4.22535" fill="black"/>
<circle cx="1210.03" cy="453.775" r="4.22535" fill="black"/>
</g>
<line x1="1078" y1="710.5" x2="1392" y2="710.5" stroke="black"/>
<line x1="1078" y1="726.5" x2="1363" y2="726.5" stroke="black"/>
<line x1="1078" y1="744.5" x2="1302" y2="744.5" stroke="black"/>
<path d="M598.64 416.9C598.12 417.5 597.52 417.78 596.62 418.22C595.8 418.64 595.14 419.22 595.14 420.26C595.14 421.22 595.84 421.8 596.66 421.8C598.02 421.8 598.56 420.68 598.62 419.22C598.64 418.56 598.64 417.44 598.64 416.9ZM602.24 421.08L602.4 421.16C602.32 421.68 601.62 422.28 600.4 422.28C599.2 422.28 598.64 421.74 598.58 421.1C598.14 421.58 597.42 422.3 595.96 422.3C594.32 422.3 593.4 421.42 593.4 420.1C593.4 418.98 594.16 418.12 595.42 417.8C596.26 417.58 597.22 417.5 597.86 417.16C598.42 416.84 598.64 416.48 598.64 415.48C598.64 414.34 598.08 413.28 597 413.28C596.48 413.28 596.1 413.46 595.9 413.72C595.7 413.94 595.56 414.4 595.48 414.66C595.38 415.04 595.22 415.36 594.68 415.36C594.3 415.36 593.94 415.1 593.94 414.58C593.94 413.86 594.84 413.02 596.98 413.02C599.12 413.02 600.28 413.74 600.28 415.12V419.7C600.28 421.3 600.56 421.74 601.34 421.74C601.76 421.74 602.1 421.46 602.24 421.08ZM621.185 422.28H620.925C620.945 421.18 620.985 421.42 620.985 419.42V409.4C620.985 408.26 619.925 408.2 619.665 408.18V408L622.505 407.66H622.585V413.94C623.225 413.3 624.405 413.02 625.265 413.02C627.925 413.02 629.685 415.02 629.685 417.62C629.685 420.62 627.605 422.3 624.985 422.3C623.025 422.3 622.365 421.56 621.985 421.56C621.665 421.56 621.405 421.92 621.185 422.28ZM624.945 422.02C626.845 422.02 627.785 419.78 627.785 417.64C627.785 415.36 626.505 413.3 624.905 413.3C623.965 413.3 623.285 413.84 622.865 414.96C622.665 415.52 622.525 416.5 622.525 417.46C622.525 418.72 622.585 419.78 622.865 420.52C623.265 421.62 624.065 422.02 624.945 422.02ZM655.728 419.74L655.948 419.8C655.908 420.76 655.048 422.3 652.728 422.3C649.808 422.3 648.128 420.46 648.128 417.88C648.128 415.28 649.768 413.04 652.748 413.04C655.248 413.04 655.728 414.26 655.728 414.66C655.728 415.1 655.388 415.46 654.888 415.46C654.208 415.46 654.068 414.82 653.888 414.3C653.728 413.88 653.488 413.28 652.588 413.28C651.368 413.28 650.028 414.96 650.028 417.68C650.028 420.88 652.008 421.68 653.228 421.68C654.868 421.68 655.588 420.7 655.728 419.74ZM679.421 416.9C678.901 417.5 678.301 417.78 677.401 418.22C676.581 418.64 675.921 419.22 675.921 420.26C675.921 421.22 676.621 421.8 677.441 421.8C678.801 421.8 679.341 420.68 679.401 419.22C679.421 418.56 679.421 417.44 679.421 416.9ZM683.021 421.08L683.181 421.16C683.101 421.68 682.401 422.28 681.181 422.28C679.981 422.28 679.421 421.74 679.361 421.1C678.921 421.58 678.201 422.3 676.741 422.3C675.101 422.3 674.181 421.42 674.181 420.1C674.181 418.98 674.941 418.12 676.201 417.8C677.041 417.58 678.001 417.5 678.641 417.16C679.201 416.84 679.421 416.48 679.421 415.48C679.421 414.34 678.861 413.28 677.781 413.28C677.261 413.28 676.881 413.46 676.681 413.72C676.481 413.94 676.341 414.4 676.261 414.66C676.161 415.04 676.001 415.36 675.461 415.36C675.081 415.36 674.721 415.1 674.721 414.58C674.721 413.86 675.621 413.02 677.761 413.02C679.901 413.02 681.061 413.74 681.061 415.12V419.7C681.061 421.3 681.341 421.74 682.121 421.74C682.541 421.74 682.881 421.46 683.021 421.08ZM701.966 422.28H701.706C701.726 421.18 701.766 421.42 701.766 419.42V409.4C701.766 408.26 700.706 408.2 700.446 408.18V408L703.286 407.66H703.366V413.94C704.006 413.3 705.186 413.02 706.046 413.02C708.706 413.02 710.466 415.02 710.466 417.62C710.466 420.62 708.386 422.3 705.766 422.3C703.806 422.3 703.146 421.56 702.766 421.56C702.446 421.56 702.186 421.92 701.966 422.28ZM705.726 422.02C707.626 422.02 708.566 419.78 708.566 417.64C708.566 415.36 707.286 413.3 705.686 413.3C704.746 413.3 704.066 413.84 703.646 414.96C703.446 415.52 703.306 416.5 703.306 417.46C703.306 418.72 703.366 419.78 703.646 420.52C704.046 421.62 704.846 422.02 705.726 422.02ZM736.509 419.74L736.729 419.8C736.689 420.76 735.829 422.3 733.509 422.3C730.589 422.3 728.909 420.46 728.909 417.88C728.909 415.28 730.549 413.04 733.529 413.04C736.029 413.04 736.509 414.26 736.509 414.66C736.509 415.1 736.169 415.46 735.669 415.46C734.989 415.46 734.849 414.82 734.669 414.3C734.509 413.88 734.269 413.28 733.369 413.28C732.149 413.28 730.809 414.96 730.809 417.68C730.809 420.88 732.789 421.68 734.009 421.68C735.649 421.68 736.369 420.7 736.509 419.74ZM760.203 416.9C759.683 417.5 759.083 417.78 758.183 418.22C757.363 418.64 756.703 419.22 756.703 420.26C756.703 421.22 757.403 421.8 758.223 421.8C759.583 421.8 760.123 420.68 760.183 419.22C760.203 418.56 760.203 417.44 760.203 416.9ZM763.803 421.08L763.963 421.16C763.883 421.68 763.183 422.28 761.963 422.28C760.763 422.28 760.203 421.74 760.143 421.1C759.702 421.58 758.983 422.3 757.523 422.3C755.882 422.3 754.963 421.42 754.963 420.1C754.963 418.98 755.723 418.12 756.983 417.8C757.823 417.58 758.783 417.5 759.423 417.16C759.983 416.84 760.203 416.48 760.203 415.48C760.203 414.34 759.643 413.28 758.563 413.28C758.043 413.28 757.663 413.46 757.463 413.72C757.263 413.94 757.123 414.4 757.043 414.66C756.943 415.04 756.783 415.36 756.243 415.36C755.863 415.36 755.503 415.1 755.503 414.58C755.503 413.86 756.403 413.02 758.543 413.02C760.683 413.02 761.843 413.74 761.843 415.12V419.7C761.843 421.3 762.123 421.74 762.903 421.74C763.323 421.74 763.663 421.46 763.803 421.08ZM782.747 422.28H782.487C782.507 421.18 782.547 421.42 782.547 419.42V409.4C782.547 408.26 781.487 408.2 781.227 408.18V408L784.067 407.66H784.147V413.94C784.787 413.3 785.967 413.02 786.827 413.02C789.487 413.02 791.247 415.02 791.247 417.62C791.247 420.62 789.167 422.3 786.547 422.3C784.587 422.3 783.927 421.56 783.547 421.56C783.227 421.56 782.967 421.92 782.747 422.28ZM786.507 422.02C788.407 422.02 789.347 419.78 789.347 417.64C789.347 415.36 788.067 413.3 786.467 413.3C785.527 413.3 784.847 413.84 784.427 414.96C784.227 415.52 784.087 416.5 784.087 417.46C784.087 418.72 784.147 419.78 784.427 420.52C784.827 421.62 785.627 422.02 786.507 422.02ZM817.29 419.74L817.51 419.8C817.47 420.76 816.61 422.3 814.29 422.3C811.37 422.3 809.69 420.46 809.69 417.88C809.69 415.28 811.33 413.04 814.31 413.04C816.81 413.04 817.29 414.26 817.29 414.66C817.29 415.1 816.95 415.46 816.45 415.46C815.77 415.46 815.63 414.82 815.45 414.3C815.29 413.88 815.05 413.28 814.15 413.28C812.93 413.28 811.59 414.96 811.59 417.68C811.59 420.88 813.57 421.68 814.79 421.68C816.43 421.68 817.15 420.7 817.29 419.74Z" fill="black"/>
<path d="M598.64 458.9C598.12 459.5 597.52 459.78 596.62 460.22C595.8 460.64 595.14 461.22 595.14 462.26C595.14 463.22 595.84 463.8 596.66 463.8C598.02 463.8 598.56 462.68 598.62 461.22C598.64 460.56 598.64 459.44 598.64 458.9ZM602.24 463.08L602.4 463.16C602.32 463.68 601.62 464.28 600.4 464.28C599.2 464.28 598.64 463.74 598.58 463.1C598.14 463.58 597.42 464.3 595.96 464.3C594.32 464.3 593.4 463.42 593.4 462.1C593.4 460.98 594.16 460.12 595.42 459.8C596.26 459.58 597.22 459.5 597.86 459.16C598.42 458.84 598.64 458.48 598.64 457.48C598.64 456.34 598.08 455.28 597 455.28C596.48 455.28 596.1 455.46 595.9 455.72C595.7 455.94 595.56 456.4 595.48 456.66C595.38 457.04 595.22 457.36 594.68 457.36C594.3 457.36 593.94 457.1 593.94 456.58C593.94 455.86 594.84 455.02 596.98 455.02C599.12 455.02 600.28 455.74 600.28 457.12V461.7C600.28 463.3 600.56 463.74 601.34 463.74C601.76 463.74 602.1 463.46 602.24 463.08ZM621.185 464.28H620.925C620.945 463.18 620.985 463.42 620.985 461.42V451.4C620.985 450.26 619.925 450.2 619.665 450.18V450L622.505 449.66H622.585V455.94C623.225 455.3 624.405 455.02 625.265 455.02C627.925 455.02 629.685 457.02 629.685 459.62C629.685 462.62 627.605 464.3 624.985 464.3C623.025 464.3 622.365 463.56 621.985 463.56C621.665 463.56 621.405 463.92 621.185 464.28ZM624.945 464.02C626.845 464.02 627.785 461.78 627.785 459.64C627.785 457.36 626.505 455.3 624.905 455.3C623.965 455.3 623.285 455.84 622.865 456.96C622.665 457.52 622.525 458.5 622.525 459.46C622.525 460.72 622.585 461.78 622.865 462.52C623.265 463.62 624.065 464.02 624.945 464.02ZM655.728 461.74L655.948 461.8C655.908 462.76 655.048 464.3 652.728 464.3C649.808 464.3 648.128 462.46 648.128 459.88C648.128 457.28 649.768 455.04 652.748 455.04C655.248 455.04 655.728 456.26 655.728 456.66C655.728 457.1 655.388 457.46 654.888 457.46C654.208 457.46 654.068 456.82 653.888 456.3C653.728 455.88 653.488 455.28 652.588 455.28C651.368 455.28 650.028 456.96 650.028 459.68C650.028 462.88 652.008 463.68 653.228 463.68C654.868 463.68 655.588 462.7 655.728 461.74ZM679.421 458.9C678.901 459.5 678.301 459.78 677.401 460.22C676.581 460.64 675.921 461.22 675.921 462.26C675.921 463.22 676.621 463.8 677.441 463.8C678.801 463.8 679.341 462.68 679.401 461.22C679.421 460.56 679.421 459.44 679.421 458.9ZM683.021 463.08L683.181 463.16C683.101 463.68 682.401 464.28 681.181 464.28C679.981 464.28 679.421 463.74 679.361 463.1C678.921 463.58 678.201 464.3 676.741 464.3C675.101 464.3 674.181 463.42 674.181 462.1C674.181 460.98 674.941 460.12 676.201 459.8C677.041 459.58 678.001 459.5 678.641 459.16C679.201 458.84 679.421 458.48 679.421 457.48C679.421 456.34 678.861 455.28 677.781 455.28C677.261 455.28 676.881 455.46 676.681 455.72C676.481 455.94 676.341 456.4 676.261 456.66C676.161 457.04 676.001 457.36 675.461 457.36C675.081 457.36 674.721 457.1 674.721 456.58C674.721 455.86 675.621 455.02 677.761 455.02C679.901 455.02 681.061 455.74 681.061 457.12V461.7C681.061 463.3 681.341 463.74 682.121 463.74C682.541 463.74 682.881 463.46 683.021 463.08ZM701.966 464.28H701.706C701.726 463.18 701.766 463.42 701.766 461.42V451.4C701.766 450.26 700.706 450.2 700.446 450.18V450L703.286 449.66H703.366V455.94C704.006 455.3 705.186 455.02 706.046 455.02C708.706 455.02 710.466 457.02 710.466 459.62C710.466 462.62 708.386 464.3 705.766 464.3C703.806 464.3 703.146 463.56 702.766 463.56C702.446 463.56 702.186 463.92 701.966 464.28ZM705.726 464.02C707.626 464.02 708.566 461.78 708.566 459.64C708.566 457.36 707.286 455.3 705.686 455.3C704.746 455.3 704.066 455.84 703.646 456.96C703.446 457.52 703.306 458.5 703.306 459.46C703.306 460.72 703.366 461.78 703.646 462.52C704.046 463.62 704.846 464.02 705.726 464.02ZM736.509 461.74L736.729 461.8C736.689 462.76 735.829 464.3 733.509 464.3C730.589 464.3 728.909 462.46 728.909 459.88C728.909 457.28 730.549 455.04 733.529 455.04C736.029 455.04 736.509 456.26 736.509 456.66C736.509 457.1 736.169 457.46 735.669 457.46C734.989 457.46 734.849 456.82 734.669 456.3C734.509 455.88 734.269 455.28 733.369 455.28C732.149 455.28 730.809 456.96 730.809 459.68C730.809 462.88 732.789 463.68 734.009 463.68C735.649 463.68 736.369 462.7 736.509 461.74ZM760.203 458.9C759.683 459.5 759.083 459.78 758.183 460.22C757.363 460.64 756.703 461.22 756.703 462.26C756.703 463.22 757.403 463.8 758.223 463.8C759.583 463.8 760.123 462.68 760.183 461.22C760.203 460.56 760.203 459.44 760.203 458.9ZM763.803 463.08L763.963 463.16C763.883 463.68 763.183 464.28 761.963 464.28C760.763 464.28 760.203 463.74 760.143 463.1C759.702 463.58 758.983 464.3 757.523 464.3C755.882 464.3 754.963 463.42 754.963 462.1C754.963 460.98 755.723 460.12 756.983 459.8C757.823 459.58 758.783 459.5 759.423 459.16C759.983 458.84 760.203 458.48 760.203 457.48C760.203 456.34 759.643 455.28 758.563 455.28C758.043 455.28 757.663 455.46 757.463 455.72C757.263 455.94 757.123 456.4 757.043 456.66C756.943 457.04 756.783 457.36 756.243 457.36C755.863 457.36 755.503 457.1 755.503 456.58C755.503 455.86 756.403 455.02 758.543 455.02C760.683 455.02 761.843 455.74 761.843 457.12V461.7C761.843 463.3 762.123 463.74 762.903 463.74C763.323 463.74 763.663 463.46 763.803 463.08ZM782.747 464.28H782.487C782.507 463.18 782.547 463.42 782.547 461.42V451.4C782.547 450.26 781.487 450.2 781.227 450.18V450L784.067 449.66H784.147V455.94C784.787 455.3 785.967 455.02 786.827 455.02C789.487 455.02 791.247 457.02 791.247 459.62C791.247 462.62 789.167 464.3 786.547 464.3C784.587 464.3 783.927 463.56 783.547 463.56C783.227 463.56 782.967 463.92 782.747 464.28ZM786.507 464.02C788.407 464.02 789.347 461.78 789.347 459.64C789.347 457.36 788.067 455.3 786.467 455.3C785.527 455.3 784.847 455.84 784.427 456.96C784.227 457.52 784.087 458.5 784.087 459.46C784.087 460.72 784.147 461.78 784.427 462.52C784.827 463.62 785.627 464.02 786.507 464.02ZM817.29 461.74L817.51 461.8C817.47 462.76 816.61 464.3 814.29 464.3C811.37 464.3 809.69 462.46 809.69 459.88C809.69 457.28 811.33 455.04 814.31 455.04C816.81 455.04 817.29 456.26 817.29 456.66C817.29 457.1 816.95 457.46 816.45 457.46C815.77 457.46 815.63 456.82 815.45 456.3C815.29 455.88 815.05 455.28 814.15 455.28C812.93 455.28 811.59 456.96 811.59 459.68C811.59 462.88 813.57 463.68 814.79 463.68C816.43 463.68 817.15 462.7 817.29 461.74Z" fill="black"/>
<path d="M598.64 501.9C598.12 502.5 597.52 502.78 596.62 503.22C595.8 503.64 595.14 504.22 595.14 505.26C595.14 506.22 595.84 506.8 596.66 506.8C598.02 506.8 598.56 505.68 598.62 504.22C598.64 503.56 598.64 502.44 598.64 501.9ZM602.24 506.08L602.4 506.16C602.32 506.68 601.62 507.28 600.4 507.28C599.2 507.28 598.64 506.74 598.58 506.1C598.14 506.58 597.42 507.3 595.96 507.3C594.32 507.3 593.4 506.42 593.4 505.1C593.4 503.98 594.16 503.12 595.42 502.8C596.26 502.58 597.22 502.5 597.86 502.16C598.42 501.84 598.64 501.48 598.64 500.48C598.64 499.34 598.08 498.28 597 498.28C596.48 498.28 596.1 498.46 595.9 498.72C595.7 498.94 595.56 499.4 595.48 499.66C595.38 500.04 595.22 500.36 594.68 500.36C594.3 500.36 593.94 500.1 593.94 499.58C593.94 498.86 594.84 498.02 596.98 498.02C599.12 498.02 600.28 498.74 600.28 500.12V504.7C600.28 506.3 600.56 506.74 601.34 506.74C601.76 506.74 602.1 506.46 602.24 506.08ZM621.185 507.28H620.925C620.945 506.18 620.985 506.42 620.985 504.42V494.4C620.985 493.26 619.925 493.2 619.665 493.18V493L622.505 492.66H622.585V498.94C623.225 498.3 624.405 498.02 625.265 498.02C627.925 498.02 629.685 500.02 629.685 502.62C629.685 505.62 627.605 507.3 624.985 507.3C623.025 507.3 622.365 506.56 621.985 506.56C621.665 506.56 621.405 506.92 621.185 507.28ZM624.945 507.02C626.845 507.02 627.785 504.78 627.785 502.64C627.785 500.36 626.505 498.3 624.905 498.3C623.965 498.3 623.285 498.84 622.865 499.96C622.665 500.52 622.525 501.5 622.525 502.46C622.525 503.72 622.585 504.78 622.865 505.52C623.265 506.62 624.065 507.02 624.945 507.02ZM655.728 504.74L655.948 504.8C655.908 505.76 655.048 507.3 652.728 507.3C649.808 507.3 648.128 505.46 648.128 502.88C648.128 500.28 649.768 498.04 652.748 498.04C655.248 498.04 655.728 499.26 655.728 499.66C655.728 500.1 655.388 500.46 654.888 500.46C654.208 500.46 654.068 499.82 653.888 499.3C653.728 498.88 653.488 498.28 652.588 498.28C651.368 498.28 650.028 499.96 650.028 502.68C650.028 505.88 652.008 506.68 653.228 506.68C654.868 506.68 655.588 505.7 655.728 504.74ZM679.421 501.9C678.901 502.5 678.301 502.78 677.401 503.22C676.581 503.64 675.921 504.22 675.921 505.26C675.921 506.22 676.621 506.8 677.441 506.8C678.801 506.8 679.341 505.68 679.401 504.22C679.421 503.56 679.421 502.44 679.421 501.9ZM683.021 506.08L683.181 506.16C683.101 506.68 682.401 507.28 681.181 507.28C679.981 507.28 679.421 506.74 679.361 506.1C678.921 506.58 678.201 507.3 676.741 507.3C675.101 507.3 674.181 506.42 674.181 505.1C674.181 503.98 674.941 503.12 676.201 502.8C677.041 502.58 678.001 502.5 678.641 502.16C679.201 501.84 679.421 501.48 679.421 500.48C679.421 499.34 678.861 498.28 677.781 498.28C677.261 498.28 676.881 498.46 676.681 498.72C676.481 498.94 676.341 499.4 676.261 499.66C676.161 500.04 676.001 500.36 675.461 500.36C675.081 500.36 674.721 500.1 674.721 499.58C674.721 498.86 675.621 498.02 677.761 498.02C679.901 498.02 681.061 498.74 681.061 500.12V504.7C681.061 506.3 681.341 506.74 682.121 506.74C682.541 506.74 682.881 506.46 683.021 506.08ZM701.966 507.28H701.706C701.726 506.18 701.766 506.42 701.766 504.42V494.4C701.766 493.26 700.706 493.2 700.446 493.18V493L703.286 492.66H703.366V498.94C704.006 498.3 705.186 498.02 706.046 498.02C708.706 498.02 710.466 500.02 710.466 502.62C710.466 505.62 708.386 507.3 705.766 507.3C703.806 507.3 703.146 506.56 702.766 506.56C702.446 506.56 702.186 506.92 701.966 507.28ZM705.726 507.02C707.626 507.02 708.566 504.78 708.566 502.64C708.566 500.36 707.286 498.3 705.686 498.3C704.746 498.3 704.066 498.84 703.646 499.96C703.446 500.52 703.306 501.5 703.306 502.46C703.306 503.72 703.366 504.78 703.646 505.52C704.046 506.62 704.846 507.02 705.726 507.02ZM736.509 504.74L736.729 504.8C736.689 505.76 735.829 507.3 733.509 507.3C730.589 507.3 728.909 505.46 728.909 502.88C728.909 500.28 730.549 498.04 733.529 498.04C736.029 498.04 736.509 499.26 736.509 499.66C736.509 500.1 736.169 500.46 735.669 500.46C734.989 500.46 734.849 499.82 734.669 499.3C734.509 498.88 734.269 498.28 733.369 498.28C732.149 498.28 730.809 499.96 730.809 502.68C730.809 505.88 732.789 506.68 734.009 506.68C735.649 506.68 736.369 505.7 736.509 504.74ZM760.203 501.9C759.683 502.5 759.083 502.78 758.183 503.22C757.363 503.64 756.703 504.22 756.703 505.26C756.703 506.22 757.403 506.8 758.223 506.8C759.583 506.8 760.123 505.68 760.183 504.22C760.203 503.56 760.203 502.44 760.203 501.9ZM763.803 506.08L763.963 506.16C763.883 506.68 763.183 507.28 761.963 507.28C760.763 507.28 760.203 506.74 760.143 506.1C759.702 506.58 758.983 507.3 757.523 507.3C755.882 507.3 754.963 506.42 754.963 505.1C754.963 503.98 755.723 503.12 756.983 502.8C757.823 502.58 758.783 502.5 759.423 502.16C759.983 501.84 760.203 501.48 760.203 500.48C760.203 499.34 759.643 498.28 758.563 498.28C758.043 498.28 757.663 498.46 757.463 498.72C757.263 498.94 757.123 499.4 757.043 499.66C756.943 500.04 756.783 500.36 756.243 500.36C755.863 500.36 755.503 500.1 755.503 499.58C755.503 498.86 756.403 498.02 758.543 498.02C760.683 498.02 761.843 498.74 761.843 500.12V504.7C761.843 506.3 762.123 506.74 762.903 506.74C763.323 506.74 763.663 506.46 763.803 506.08ZM782.747 507.28H782.487C782.507 506.18 782.547 506.42 782.547 504.42V494.4C782.547 493.26 781.487 493.2 781.227 493.18V493L784.067 492.66H784.147V498.94C784.787 498.3 785.967 498.02 786.827 498.02C789.487 498.02 791.247 500.02 791.247 502.62C791.247 505.62 789.167 507.3 786.547 507.3C784.587 507.3 783.927 506.56 783.547 506.56C783.227 506.56 782.967 506.92 782.747 507.28ZM786.507 507.02C788.407 507.02 789.347 504.78 789.347 502.64C789.347 500.36 788.067 498.3 786.467 498.3C785.527 498.3 784.847 498.84 784.427 499.96C784.227 500.52 784.087 501.5 784.087 502.46C784.087 503.72 784.147 504.78 784.427 505.52C784.827 506.62 785.627 507.02 786.507 507.02ZM817.29 504.74L817.51 504.8C817.47 505.76 816.61 507.3 814.29 507.3C811.37 507.3 809.69 505.46 809.69 502.88C809.69 500.28 811.33 498.04 814.31 498.04C816.81 498.04 817.29 499.26 817.29 499.66C817.29 500.1 816.95 500.46 816.45 500.46C815.77 500.46 815.63 499.82 815.45 499.3C815.29 498.88 815.05 498.28 814.15 498.28C812.93 498.28 811.59 499.96 811.59 502.68C811.59 505.88 813.57 506.68 814.79 506.68C816.43 506.68 817.15 505.7 817.29 504.74Z" fill="black"/>
<path opacity="0.05" d="M243 690C246 592.5 283.5 551 347.5 503.5C392 470 403.5 454.5 403.5 428.5C403.5 398 386 380.5 352.5 380.5C321.5 380.5 302.5 393 280.5 418.5L247 387C274 355.5 303.5 334.5 354.5 334.5C416 334.5 455 366.5 455 425C455 470.5 435 495.5 381.5 535.5C321 580.5 305 604.5 299.5 644H457.5V690H243ZM700.305 690C702.805 568 740.805 469 805.305 386.5H635.805V340H864.805V384C794.805 465.5 754.305 558.5 752.305 690H700.305ZM1160.61 695.5C1087.11 695.5 1043.11 632.5 1043.11 515C1043.11 397.5 1087.61 334.5 1160.61 334.5C1234.11 334.5 1278.11 397.5 1278.11 515C1278.11 632.5 1234.11 695.5 1160.61 695.5ZM1160.61 648.5C1204.61 648.5 1224.61 605.5 1224.61 515C1224.61 425 1204.61 381.5 1160.61 381.5C1116.61 381.5 1097.11 424.5 1097.11 515C1097.11 605 1117.11 648.5 1160.61 648.5ZM1562.91 695.5C1489.41 695.5 1445.41 632.5 1445.41 515C1445.41 397.5 1489.91 334.5 1562.91 334.5C1636.41 334.5 1680.41 397.5 1680.41 515C1680.41 632.5 1636.41 695.5 1562.91 695.5ZM1562.91 648.5C1606.91 648.5 1626.91 605.5 1626.91 515C1626.91 425 1606.91 381.5 1562.91 381.5C1518.91 381.5 1499.41 424.5 1499.41 515C1499.41 605 1519.41 648.5 1562.91 648.5Z" fill="black"/>
<path d="M767.464 610H706.024V607.44C722.152 605.136 727.528 600.528 727.528 574.928V457.68C727.528 435.152 721.64 434.896 708.584 433.36V431.056L747.752 426.448H748.776C748.52 439.248 748.264 456.912 748.264 467.408V557.264C748.264 566.992 748.264 580.048 748.52 588.752C748.776 605.392 758.76 606.16 767.464 607.44V610ZM854.206 607.44V610H796.094V607.44C809.15 605.904 815.55 603.088 815.55 577.232V525.008C815.55 515.28 813.502 501.712 796.862 501.712V499.152L832.702 494.288H833.47L836.03 512.464C843.454 501.968 855.486 494.8 872.638 494.8C888.766 494.8 902.846 500.176 907.966 512.976C915.134 502.48 928.446 494.8 945.854 494.8C965.054 494.8 983.486 502.736 983.486 523.216V585.168C983.486 606.416 993.726 606.16 1002.17 607.44V610H943.038V607.184C951.998 606.416 962.494 605.904 962.494 584.656C962.494 562.128 962.494 547.024 962.238 531.152C961.982 511.696 955.582 499.92 937.918 499.92C926.91 499.92 915.134 505.808 911.806 522.96C910.27 530.896 909.758 540.88 909.758 554.448C909.758 566.992 909.758 575.44 910.014 585.168C910.526 605.904 919.486 605.904 927.934 607.44V610H869.31V607.184C878.014 606.416 888.254 605.904 888.51 584.656C888.766 572.88 888.766 564.944 888.766 557.008V531.152C888.766 512.208 882.366 499.92 864.702 499.92C853.182 499.92 841.918 506.064 838.078 523.728C836.286 531.408 835.774 541.648 835.774 557.264C835.774 566.992 836.03 579.792 836.286 588.496C836.542 603.856 844.734 605.904 854.206 607.44ZM1129.38 581.072L1132.19 581.84C1131.68 594.128 1120.67 613.84 1090.98 613.84C1053.6 613.84 1032.1 590.288 1032.1 557.264C1032.1 523.984 1053.09 495.312 1091.23 495.312C1123.23 495.312 1129.38 510.928 1129.38 516.048C1129.38 521.68 1125.03 526.288 1118.63 526.288C1109.92 526.288 1108.13 518.096 1105.83 511.44C1103.78 506.064 1100.71 498.384 1089.19 498.384C1073.57 498.384 1056.42 519.888 1056.42 554.704C1056.42 595.664 1081.76 605.904 1097.38 605.904C1118.37 605.904 1127.59 593.36 1129.38 581.072ZM1198.5 597.456C1198.5 605.648 1191.59 612.304 1183.4 612.304C1175.21 612.304 1168.81 605.648 1168.81 597.456C1168.81 589.264 1175.21 582.352 1183.4 582.352C1191.59 582.352 1198.5 589.264 1198.5 597.456Z" fill="black"/>
<path d="M822.016 676.952C826.576 676.952 828.88 671.72 828.88 666.584C828.88 661.304 825.904 656.168 822.064 656.168C819.808 656.168 817.936 657.416 816.976 660.104C816.496 661.544 816.304 663.848 816.304 666.104C816.304 669.032 816.496 671.624 817.12 673.4C818.032 676.136 819.904 676.952 822.016 676.952ZM821.296 689.144H807.376V688.664C809.968 688.52 812.368 688.712 812.416 683.048C812.464 678.92 812.464 675.656 812.464 670.856V662.984C812.464 658.616 811.744 656.648 807.856 656.504V656.072L815.68 655.016H815.824L816.544 657.944C818.128 656.072 820.672 655.448 822.736 655.448C828.976 655.448 833.44 660.632 833.44 666.92C833.44 673.832 828.208 677.672 822.592 677.672C819.472 677.672 817.744 676.568 816.304 674.936C816.304 676.76 816.304 681.176 816.352 682.808C816.448 687.992 818.656 688.664 821.296 688.664V689.144ZM906.146 677H895.106V676.52C897.554 676.232 898.658 675.896 898.658 671.912V662.456C898.658 660.344 898.562 656.696 895.826 656.696H894.914V656.216L901.778 655.16H901.922L902.546 659.576C903.554 657.656 905.09 655.448 908.546 655.448C911.282 655.448 912.098 657.08 912.098 657.848C912.098 658.856 911.522 659.816 910.37 659.816C909.218 659.816 908.786 659.096 908.258 658.376C907.778 657.704 907.298 656.984 906.338 656.984C904.754 656.984 903.458 658.664 902.93 660.776C902.642 662.072 902.45 664.184 902.45 667.112C902.45 668.936 902.498 671.24 902.546 672.872C902.594 675.896 904.418 676.424 906.146 676.52V677ZM995.578 666.584C995.578 673.208 989.386 677.72 983.962 677.72C977.386 677.72 972.298 672.44 972.298 666.536C972.298 660.968 977.146 655.448 983.962 655.448C991.114 655.448 995.578 660.824 995.578 666.584ZM983.962 677C989.098 677 991.018 671.576 991.018 666.584C991.018 660.776 988.042 656.12 983.962 656.12C978.97 656.12 976.858 661.064 976.858 666.536C976.858 672.296 979.834 677 983.962 677ZM1062.46 647.48C1061.26 647.48 1060.2 646.472 1060.2 645.224C1060.2 644.024 1061.26 643.016 1062.46 643.016C1063.66 643.016 1064.67 644.024 1064.67 645.224C1064.67 646.472 1063.66 647.48 1062.46 647.48ZM1060.63 678.056V662.12C1060.63 659.576 1060.63 656.888 1056.99 656.888V656.408L1064.43 655.16H1064.62C1064.62 657.224 1064.52 664.184 1064.52 667.112C1064.52 668.936 1064.57 674.024 1064.57 677.576C1064.57 681.8 1064.43 683.672 1063.99 684.584C1062.6 687.608 1058.62 689.144 1055.64 689.144C1052.33 689.144 1051.23 687.512 1051.23 686.408C1051.23 685.544 1051.85 684.344 1053.15 684.344C1054.25 684.344 1054.78 684.872 1055.35 686.12C1055.88 687.224 1056.51 688.232 1057.37 688.232C1058.38 688.232 1059.82 687.56 1060.35 684.44C1060.73 682.328 1060.63 680.696 1060.63 678.056ZM1147.8 671.576L1148.38 671.72C1148.19 674.168 1145.69 677.72 1139.98 677.72C1132.64 677.72 1128.75 673.016 1128.75 666.92C1128.75 661.16 1132.4 655.448 1139.64 655.448C1145.12 655.448 1148.04 659.096 1148.33 663.032H1133.5C1133.36 664.04 1133.31 665.144 1133.31 666.344C1133.31 674.264 1138.25 676.232 1141.28 676.232C1145.21 676.232 1147.28 674.024 1147.8 671.576ZM1133.6 662.264H1144.25C1144.16 659.144 1142.48 656.072 1139.45 656.072C1136.28 656.072 1134.36 658.376 1133.6 662.264ZM1227.93 671.576L1228.46 671.72C1228.36 674.024 1226.3 677.72 1220.73 677.72C1213.72 677.72 1209.69 673.304 1209.69 667.112C1209.69 660.872 1213.62 655.496 1220.78 655.496C1226.78 655.496 1227.93 658.424 1227.93 659.384C1227.93 660.44 1227.11 661.304 1225.91 661.304C1224.28 661.304 1223.94 659.768 1223.51 658.52C1223.13 657.512 1222.55 656.072 1220.39 656.072C1217.46 656.072 1214.25 660.104 1214.25 666.632C1214.25 674.312 1219 676.232 1221.93 676.232C1225.86 676.232 1227.59 673.88 1227.93 671.576ZM1302.95 673.928L1303.43 674.12C1303.05 676.232 1300.79 677.672 1297.67 677.672C1295.18 677.672 1291.96 677.096 1291.96 673.112C1291.96 668.888 1292.25 660.872 1292.25 656.984H1289.27V656.456C1291.63 655.736 1294.31 653.576 1295.37 650.216H1296.04V656.072H1302.33V657.032H1296.09V671.816C1296.09 674.744 1297.24 676.376 1299.35 676.376C1301.56 676.376 1302.52 675.368 1302.95 673.928ZM1364.65 677.72H1364.32L1363.89 670.28L1364.37 670.232C1365.04 673.256 1367.25 677.096 1370.8 677.096C1372.86 677.096 1375.12 675.896 1375.12 673.4C1375.12 671.432 1373.92 669.752 1369.98 667.832C1366.48 666.104 1364.7 664.088 1364.7 661.208C1364.7 658.232 1367.58 655.4 1371.42 655.4C1373.1 655.4 1374.97 656.264 1375.6 656.264C1376.13 656.264 1376.32 655.928 1376.51 655.544H1376.94L1377.37 661.736H1376.89C1376.08 659.48 1374.59 656.072 1371.37 656.072C1369.02 656.072 1367.68 657.944 1367.68 659.24C1367.68 661.4 1368.73 662.792 1372.57 664.52C1376.56 666.344 1378.67 668.216 1378.67 671.576C1378.67 675.08 1375.93 677.768 1370.89 677.768C1368.35 677.768 1366.67 676.616 1365.9 676.616C1365.37 676.616 1364.99 677.096 1364.65 677.72Z" fill="black"/>
<rect x="1773.97" y="1134.85" width="269.331" height="127.355" transform="rotate(-55.0862 1773.97 1134.85)" fill="#DDDDDD"/>
</g>
<defs>
<clipPath id="clip0_1_2">
<rect width="1920" height="1080" fill="white"/>
</clipPath>
</defs>
</svg>
