<svg width="1920" height="1080" viewBox="0 0 1920 1080" fill="none" xmlns="http://www.w3.org/2000/svg">
<rect width="1920" height="1080" fill="#EEEEEE"/>
<path d="M43.08 598.92C45.48 598.92 47.4133 599.707 48.88 601.28C50.3467 602.853 51.08 605.213 51.08 608.36V614H63V616.8H35.04V608.36C35.04 605.24 35.7733 602.893 37.24 601.32C38.7067 599.72 40.6533 598.92 43.08 598.92ZM48.68 608.36C48.68 603.987 46.8133 601.8 43.08 601.8C41.2133 601.8 39.8 602.32 38.84 603.36C37.88 604.4 37.4 606.067 37.4 608.36V614H48.68V608.36ZM63.32 584.262C63.32 586.315 62.8667 588.169 61.96 589.822C61.0267 591.449 59.72 592.742 58.04 593.702C56.3333 594.635 54.3467 595.102 52.08 595.102C49.8133 595.102 47.84 594.622 46.16 593.662C44.4533 592.702 43.1467 591.395 42.24 589.742C41.3067 588.089 40.84 586.235 40.84 584.182C40.84 582.129 41.3067 580.275 42.24 578.622C43.1467 576.942 44.4533 575.635 46.16 574.702C47.84 573.742 49.8133 573.262 52.08 573.262C54.32 573.262 56.2933 573.742 58 574.702C59.7067 575.662 61.0267 576.982 61.96 578.662C62.8667 580.342 63.32 582.209 63.32 584.262ZM60.88 584.262C60.88 582.822 60.56 581.489 59.92 580.262C59.2533 579.035 58.2667 578.049 56.96 577.302C55.6267 576.529 54 576.142 52.08 576.142C50.16 576.142 48.5467 576.515 47.24 577.262C45.9067 578.009 44.92 578.995 44.28 580.222C43.6133 581.449 43.28 582.782 43.28 584.222C43.28 585.662 43.6133 586.995 44.28 588.222C44.92 589.449 45.9067 590.435 47.24 591.182C48.5467 591.902 50.16 592.262 52.08 592.262C54 592.262 55.6267 591.902 56.96 591.182C58.2667 590.435 59.2533 589.462 59.92 588.262C60.56 587.035 60.88 585.702 60.88 584.262ZM45.96 564.998C44.4933 564.304 43.28 563.211 42.32 561.718C41.3333 560.198 40.84 558.398 40.84 556.318C40.84 554.344 41.3067 552.571 42.24 550.998C43.1467 549.398 44.4533 548.158 46.16 547.278C47.84 546.371 49.8 545.918 52.04 545.918C54.28 545.918 56.2533 546.371 57.96 547.278C59.6667 548.158 60.9867 549.398 61.92 550.998C62.8533 552.571 63.32 554.344 63.32 556.318C63.32 558.371 62.84 560.158 61.88 561.678C60.8933 563.198 59.6667 564.304 58.2 564.998H73.32V567.758H41.16V564.998H45.96ZM52.04 548.758C50.2267 548.758 48.6667 549.118 47.36 549.838C46.0267 550.531 45.0133 551.491 44.32 552.718C43.6267 553.944 43.28 555.331 43.28 556.878C43.28 558.371 43.64 559.744 44.36 560.998C45.08 562.224 46.1067 563.198 47.44 563.918C48.7733 564.638 50.32 564.998 52.08 564.998C53.84 564.998 55.3867 564.638 56.72 563.918C58.0533 563.198 59.08 562.224 59.8 560.998C60.52 559.744 60.88 558.371 60.88 556.878C60.88 555.331 60.5333 553.944 59.84 552.718C59.12 551.491 58.0933 550.531 56.76 549.838C55.4 549.118 53.8267 548.758 52.04 548.758ZM45.96 537.606C44.4933 536.912 43.28 535.819 42.32 534.326C41.3333 532.806 40.84 531.006 40.84 528.926C40.84 526.952 41.3067 525.179 42.24 523.606C43.1467 522.006 44.4533 520.766 46.16 519.886C47.84 518.979 49.8 518.526 52.04 518.526C54.28 518.526 56.2533 518.979 57.96 519.886C59.6667 520.766 60.9867 522.006 61.92 523.606C62.8533 525.179 63.32 526.952 63.32 528.926C63.32 530.979 62.84 532.766 61.88 534.286C60.8933 535.806 59.6667 536.912 58.2 537.606H73.32V540.366H41.16V537.606H45.96ZM52.04 521.366C50.2267 521.366 48.6667 521.726 47.36 522.446C46.0267 523.139 45.0133 524.099 44.32 525.326C43.6267 526.552 43.28 527.939 43.28 529.486C43.28 530.979 43.64 532.352 44.36 533.606C45.08 534.832 46.1067 535.806 47.44 536.526C48.7733 537.246 50.32 537.606 52.08 537.606C53.84 537.606 55.3867 537.246 56.72 536.526C58.0533 535.806 59.08 534.832 59.8 533.606C60.52 532.352 60.88 530.979 60.88 529.486C60.88 527.939 60.5333 526.552 59.84 525.326C59.12 524.099 58.0933 523.139 56.76 522.446C55.4 521.726 53.8267 521.366 52.04 521.366ZM37.04 511.573C37.04 512.133 36.84 512.613 36.44 513.013C36.04 513.413 35.5467 513.613 34.96 513.613C34.3733 513.613 33.8933 513.413 33.52 513.013C33.12 512.613 32.92 512.133 32.92 511.573C32.92 511.013 33.12 510.533 33.52 510.133C33.8933 509.733 34.3733 509.533 34.96 509.533C35.5467 509.533 36.04 509.733 36.44 510.133C36.84 510.533 37.04 511.013 37.04 511.573ZM41.16 510.173H63V512.973H41.16V510.173ZM40.76 493.193C40.76 490.579 41.5733 488.446 43.2 486.793C44.8 485.139 47.1333 484.313 50.2 484.313H63V487.073H50.52C48.1467 487.073 46.3333 487.673 45.08 488.873C43.8267 490.046 43.2 491.659 43.2 493.713C43.2 495.819 43.8667 497.499 45.2 498.753C46.5333 500.006 48.4933 500.633 51.08 500.633H63V503.433H41.16V500.633H44.88C43.5467 499.939 42.5333 498.939 41.84 497.633C41.12 496.326 40.76 494.846 40.76 493.193ZM63.32 470.2C63.32 472.707 62.7467 474.76 61.6 476.36C60.4267 477.934 58.84 478.814 56.84 479V476.12C58.0667 475.987 59.0667 475.414 59.84 474.4C60.5867 473.36 60.96 471.974 60.96 470.24C60.96 468.72 60.6 467.534 59.88 466.68C59.16 465.8 58.2667 465.36 57.2 465.36C56.4533 465.36 55.84 465.6 55.36 466.08C54.88 466.56 54.5067 467.174 54.24 467.92C53.9467 468.64 53.64 469.627 53.32 470.88C52.8933 472.507 52.4667 473.827 52.04 474.84C51.6133 475.854 50.9867 476.72 50.16 477.44C49.3067 478.134 48.1733 478.48 46.76 478.48C45.6933 478.48 44.7067 478.16 43.8 477.52C42.8933 476.88 42.1733 475.974 41.64 474.8C41.1067 473.627 40.84 472.294 40.84 470.8C40.84 468.454 41.44 466.56 42.64 465.12C43.8133 463.68 45.44 462.907 47.52 462.8V465.6C46.24 465.68 45.2133 466.187 44.44 467.12C43.64 468.027 43.24 469.28 43.24 470.88C43.24 472.294 43.5733 473.44 44.24 474.32C44.9067 475.2 45.7333 475.64 46.72 475.64C47.5733 475.64 48.28 475.387 48.84 474.88C49.3733 474.347 49.8 473.694 50.12 472.92C50.4133 472.147 50.7467 471.107 51.12 469.8C51.5467 468.227 51.96 466.974 52.36 466.04C52.76 465.107 53.3467 464.307 54.12 463.64C54.8933 462.974 55.92 462.627 57.2 462.6C58.3733 462.6 59.4267 462.92 60.36 463.56C61.2667 464.2 61.9867 465.094 62.52 466.24C63.0533 467.387 63.32 468.707 63.32 470.2Z" fill="black" fill-opacity="0.6"/>
<path d="M1863.28 498V508.04H1861V495.2H1888.96V498H1863.28ZM1886.96 513.836C1886.96 513.276 1887.16 512.796 1887.56 512.396C1887.96 511.996 1888.45 511.796 1889.04 511.796C1889.63 511.796 1890.11 511.996 1890.48 512.396C1890.88 512.796 1891.08 513.276 1891.08 513.836C1891.08 514.396 1890.88 514.876 1890.48 515.276C1890.11 515.676 1889.63 515.876 1889.04 515.876C1888.45 515.876 1887.96 515.676 1887.56 515.276C1887.16 514.876 1886.96 514.396 1886.96 513.836ZM1882.84 515.236H1861V512.436H1882.84V515.236ZM1883.16 531.137C1883.16 533.19 1882.68 534.977 1881.72 536.497C1880.76 538.017 1879.55 539.11 1878.08 539.777H1882.84V542.577H1860.44C1858.44 542.577 1856.67 542.137 1855.12 541.257C1853.57 540.403 1852.39 539.203 1851.56 537.657C1850.71 536.11 1850.28 534.35 1850.28 532.377C1850.28 529.577 1850.95 527.243 1852.28 525.377C1853.61 523.537 1855.43 522.39 1857.72 521.937V524.697C1856.2 525.177 1854.99 526.083 1854.08 527.417C1853.17 528.777 1852.72 530.43 1852.72 532.377C1852.72 533.79 1853.03 535.057 1853.64 536.177C1854.23 537.297 1855.11 538.177 1856.28 538.817C1857.45 539.457 1858.84 539.777 1860.44 539.777H1865.84C1864.35 539.083 1863.11 537.977 1862.12 536.457C1861.16 534.963 1860.68 533.19 1860.68 531.137C1860.68 529.137 1861.15 527.337 1862.08 525.737C1863.01 524.163 1864.33 522.923 1866.04 522.017C1867.75 521.137 1869.72 520.697 1871.96 520.697C1874.2 520.697 1876.16 521.137 1877.84 522.017C1879.55 522.923 1880.85 524.163 1881.76 525.737C1882.69 527.337 1883.16 529.137 1883.16 531.137ZM1871.92 539.777C1873.68 539.777 1875.23 539.417 1876.56 538.697C1877.89 537.977 1878.92 536.99 1879.64 535.737C1880.36 534.51 1880.72 533.15 1880.72 531.657C1880.72 530.11 1880.37 528.723 1879.68 527.497C1878.99 526.27 1877.97 525.297 1876.64 524.577C1875.33 523.883 1873.77 523.537 1871.96 523.537C1870.17 523.537 1868.6 523.883 1867.24 524.577C1865.91 525.297 1864.88 526.27 1864.16 527.497C1863.47 528.723 1863.12 530.11 1863.12 531.657C1863.12 533.15 1863.48 534.51 1864.2 535.737C1864.92 536.99 1865.95 537.977 1867.28 538.697C1868.61 539.417 1870.16 539.777 1871.92 539.777ZM1883.24 559.769C1883.24 561.422 1882.89 562.902 1882.2 564.209C1881.51 565.542 1880.44 566.582 1879 567.329C1877.59 568.102 1875.85 568.489 1873.8 568.489H1861V565.729H1873.48C1875.85 565.729 1877.67 565.129 1878.92 563.929C1880.17 562.755 1880.8 561.142 1880.8 559.089C1880.8 556.982 1880.13 555.302 1878.8 554.049C1877.47 552.795 1875.51 552.169 1872.92 552.169H1861V549.369H1890.6V552.169H1879.12C1880.43 552.862 1881.44 553.875 1882.16 555.209C1882.88 556.569 1883.24 558.089 1883.24 559.769ZM1880.48 578.721H1866.92C1865.59 578.721 1864.67 578.975 1864.16 579.481C1863.65 579.988 1863.4 580.881 1863.4 582.161V584.721H1861V581.721C1861 579.748 1861.45 578.281 1862.36 577.321C1863.29 576.361 1864.81 575.881 1866.92 575.881H1880.48V572.841H1882.84V575.881H1888.32V578.721H1882.84V584.721H1880.48V578.721Z" fill="black" fill-opacity="0.6"/>
<path d="M880.88 86.04V103.64C880.88 106.413 881.533 108.467 882.84 109.8C884.173 111.133 885.987 111.8 888.28 111.8C890.573 111.8 892.36 111.147 893.64 109.84C894.947 108.507 895.6 106.44 895.6 103.64V86.04H898.4V103.6C898.4 107.147 897.453 109.813 895.56 111.6C893.693 113.387 891.253 114.28 888.24 114.28C885.227 114.28 882.773 113.387 880.88 111.6C879.013 109.813 878.08 107.147 878.08 103.6V86.04H880.88ZM907.805 96.96C908.499 95.4933 909.592 94.28 911.085 93.32C912.605 92.3333 914.405 91.84 916.485 91.84C918.459 91.84 920.232 92.3067 921.805 93.24C923.405 94.1467 924.645 95.4533 925.525 97.16C926.432 98.84 926.885 100.8 926.885 103.04C926.885 105.28 926.432 107.253 925.525 108.96C924.645 110.667 923.405 111.987 921.805 112.92C920.232 113.853 918.459 114.32 916.485 114.32C914.432 114.32 912.645 113.84 911.125 112.88C909.605 111.893 908.499 110.667 907.805 109.2V124.32H905.045V92.16H907.805V96.96ZM924.045 103.04C924.045 101.227 923.685 99.6667 922.965 98.36C922.272 97.0267 921.312 96.0133 920.085 95.32C918.859 94.6267 917.472 94.28 915.925 94.28C914.432 94.28 913.059 94.64 911.805 95.36C910.579 96.08 909.605 97.1067 908.885 98.44C908.165 99.7733 907.805 101.32 907.805 103.08C907.805 104.84 908.165 106.387 908.885 107.72C909.605 109.053 910.579 110.08 911.805 110.8C913.059 111.52 914.432 111.88 915.925 111.88C917.472 111.88 918.859 111.533 920.085 110.84C921.312 110.12 922.272 109.093 922.965 107.76C923.685 106.4 924.045 104.827 924.045 103.04ZM931.157 103.04C931.157 100.8 931.611 98.84 932.517 97.16C933.424 95.4533 934.664 94.1467 936.237 93.24C937.837 92.3067 939.637 91.84 941.637 91.84C943.558 91.84 945.291 92.3067 946.838 93.24C948.384 94.1733 949.518 95.3867 950.238 96.88V84.4H953.038V114H950.238V109.12C949.571 110.64 948.477 111.893 946.957 112.88C945.437 113.84 943.651 114.32 941.597 114.32C939.597 114.32 937.797 113.853 936.197 112.92C934.624 111.987 933.384 110.667 932.477 108.96C931.597 107.253 931.157 105.28 931.157 103.04ZM950.238 103.08C950.238 101.32 949.878 99.7733 949.158 98.44C948.438 97.1067 947.451 96.08 946.198 95.36C944.971 94.64 943.611 94.28 942.118 94.28C940.571 94.28 939.184 94.6267 937.957 95.32C936.731 96.0133 935.757 97.0267 935.037 98.36C934.344 99.6667 933.997 101.227 933.997 103.04C933.997 104.827 934.344 106.4 935.037 107.76C935.757 109.093 936.731 110.12 937.957 110.84C939.184 111.533 940.571 111.88 942.118 111.88C943.611 111.88 944.971 111.52 946.198 110.8C947.451 110.08 948.438 109.053 949.158 107.72C949.878 106.387 950.238 104.84 950.238 103.08ZM958.55 103.04C958.55 100.8 958.99 98.84 959.87 97.16C960.776 95.4533 962.016 94.1467 963.59 93.24C965.19 92.3067 966.99 91.84 968.99 91.84C971.07 91.84 972.856 92.32 974.35 93.28C975.87 94.24 976.963 95.4667 977.63 96.96V92.16H980.43V114H977.63V109.16C976.936 110.653 975.83 111.893 974.31 112.88C972.816 113.84 971.03 114.32 968.95 114.32C966.976 114.32 965.19 113.853 963.59 112.92C962.016 111.987 960.776 110.667 959.87 108.96C958.99 107.253 958.55 105.28 958.55 103.04ZM977.63 103.08C977.63 101.32 977.27 99.7733 976.55 98.44C975.83 97.1067 974.843 96.08 973.59 95.36C972.363 94.64 971.003 94.28 969.51 94.28C967.963 94.28 966.576 94.6267 965.35 95.32C964.123 96.0133 963.15 97.0267 962.43 98.36C961.736 99.6667 961.39 101.227 961.39 103.04C961.39 104.827 961.736 106.4 962.43 107.76C963.15 109.093 964.123 110.12 965.35 110.84C966.576 111.533 967.963 111.88 969.51 111.88C971.003 111.88 972.363 111.52 973.59 110.8C974.843 110.08 975.83 109.053 976.55 107.72C977.27 106.387 977.63 104.84 977.63 103.08ZM990.862 94.52V108.08C990.862 109.413 991.115 110.333 991.622 110.84C992.129 111.347 993.022 111.6 994.302 111.6H996.862V114H993.862C991.889 114 990.422 113.547 989.462 112.64C988.502 111.707 988.022 110.187 988.022 108.08V94.52H984.982V92.16H988.022V86.68H990.862V92.16H996.862V94.52H990.862ZM1021.64 101.96C1021.64 102.92 1021.61 103.653 1021.56 104.16H1003.44C1003.52 105.813 1003.92 107.227 1004.64 108.4C1005.36 109.573 1006.31 110.467 1007.48 111.08C1008.65 111.667 1009.93 111.96 1011.32 111.96C1013.13 111.96 1014.65 111.52 1015.88 110.64C1017.13 109.76 1017.96 108.573 1018.36 107.08H1021.32C1020.79 109.213 1019.64 110.96 1017.88 112.32C1016.15 113.653 1013.96 114.32 1011.32 114.32C1009.27 114.32 1007.43 113.867 1005.8 112.96C1004.17 112.027 1002.89 110.72 1001.96 109.04C1001.05 107.333 1000.6 105.347 1000.6 103.08C1000.6 100.813 1001.05 98.8267 1001.96 97.12C1002.87 95.4133 1004.13 94.1067 1005.76 93.2C1007.39 92.2933 1009.24 91.84 1011.32 91.84C1013.4 91.84 1015.21 92.2933 1016.76 93.2C1018.33 94.1067 1019.53 95.3333 1020.36 96.88C1021.21 98.4 1021.64 100.093 1021.64 101.96ZM1018.8 101.88C1018.83 100.253 1018.49 98.8667 1017.8 97.72C1017.13 96.5733 1016.21 95.7067 1015.04 95.12C1013.87 94.5333 1012.59 94.24 1011.2 94.24C1009.12 94.24 1007.35 94.9067 1005.88 96.24C1004.41 97.5733 1003.6 99.4533 1003.44 101.88H1018.8ZM1034.68 114.32C1032.18 114.32 1030.12 113.747 1028.52 112.6C1026.95 111.427 1026.07 109.84 1025.88 107.84H1028.76C1028.9 109.067 1029.47 110.067 1030.48 110.84C1031.52 111.587 1032.91 111.96 1034.64 111.96C1036.16 111.96 1037.35 111.6 1038.2 110.88C1039.08 110.16 1039.52 109.267 1039.52 108.2C1039.52 107.453 1039.28 106.84 1038.8 106.36C1038.32 105.88 1037.71 105.507 1036.96 105.24C1036.24 104.947 1035.26 104.64 1034 104.32C1032.38 103.893 1031.06 103.467 1030.04 103.04C1029.03 102.613 1028.16 101.987 1027.44 101.16C1026.75 100.307 1026.4 99.1733 1026.4 97.76C1026.4 96.6933 1026.72 95.7067 1027.36 94.8C1028 93.8933 1028.91 93.1733 1030.08 92.64C1031.26 92.1067 1032.59 91.84 1034.08 91.84C1036.43 91.84 1038.32 92.44 1039.76 93.64C1041.2 94.8133 1041.98 96.44 1042.08 98.52H1039.28C1039.2 97.24 1038.7 96.2133 1037.76 95.44C1036.86 94.64 1035.6 94.24 1034 94.24C1032.59 94.24 1031.44 94.5733 1030.56 95.24C1029.68 95.9067 1029.24 96.7333 1029.24 97.72C1029.24 98.5733 1029.5 99.28 1030 99.84C1030.54 100.373 1031.19 100.8 1031.96 101.12C1032.74 101.413 1033.78 101.747 1035.08 102.12C1036.66 102.547 1037.91 102.96 1038.84 103.36C1039.78 103.76 1040.58 104.347 1041.24 105.12C1041.91 105.893 1042.26 106.92 1042.28 108.2C1042.28 109.373 1041.96 110.427 1041.32 111.36C1040.68 112.267 1039.79 112.987 1038.64 113.52C1037.5 114.053 1036.18 114.32 1034.68 114.32Z" fill="black"/>
<path d="M1050.27 112.64V112.216L1053.18 108.296H1053.85V112.152H1054.7V112.64H1053.85V114H1053.3V112.64H1050.27ZM1053.32 108.912L1050.92 112.152H1053.32V108.912ZM1055.51 111.08C1055.51 110.163 1055.65 109.451 1055.93 108.944C1056.21 108.437 1056.72 108.184 1057.45 108.184C1058.18 108.184 1058.69 108.437 1058.97 108.944C1059.25 109.451 1059.39 110.163 1059.39 111.08C1059.39 112.013 1059.25 112.736 1058.97 113.248C1058.69 113.76 1058.18 114.016 1057.45 114.016C1056.71 114.016 1056.2 113.76 1055.92 113.248C1055.64 112.736 1055.51 112.013 1055.51 111.08ZM1058.84 111.08C1058.84 110.584 1058.81 110.165 1058.74 109.824C1058.67 109.483 1058.53 109.208 1058.33 109C1058.13 108.792 1057.83 108.688 1057.45 108.688C1057.07 108.688 1056.77 108.792 1056.57 109C1056.37 109.208 1056.23 109.483 1056.16 109.824C1056.09 110.165 1056.06 110.584 1056.06 111.08C1056.06 111.592 1056.09 112.021 1056.16 112.368C1056.23 112.709 1056.37 112.984 1056.57 113.192C1056.77 113.4 1057.07 113.504 1057.45 113.504C1057.83 113.504 1058.13 113.4 1058.33 113.192C1058.53 112.984 1058.67 112.709 1058.74 112.368C1058.81 112.021 1058.84 111.592 1058.84 111.08ZM1061.19 110.592C1061.33 110.299 1061.55 110.056 1061.84 109.864C1062.15 109.667 1062.51 109.568 1062.92 109.568C1063.32 109.568 1063.67 109.661 1063.99 109.848C1064.31 110.029 1064.56 110.291 1064.73 110.632C1064.91 110.968 1065 111.36 1065 111.808C1065 112.256 1064.91 112.651 1064.73 112.992C1064.56 113.333 1064.31 113.597 1063.99 113.784C1063.67 113.971 1063.32 114.064 1062.92 114.064C1062.51 114.064 1062.16 113.968 1061.85 113.776C1061.55 113.579 1061.33 113.333 1061.19 113.04V116.064H1060.64V109.632H1061.19V110.592ZM1064.44 111.808C1064.44 111.445 1064.36 111.133 1064.22 110.872C1064.08 110.605 1063.89 110.403 1063.64 110.264C1063.4 110.125 1063.12 110.056 1062.81 110.056C1062.51 110.056 1062.24 110.128 1061.99 110.272C1061.74 110.416 1061.55 110.621 1061.4 110.888C1061.26 111.155 1061.19 111.464 1061.19 111.816C1061.19 112.168 1061.26 112.477 1061.4 112.744C1061.55 113.011 1061.74 113.216 1061.99 113.36C1062.24 113.504 1062.51 113.576 1062.81 113.576C1063.12 113.576 1063.4 113.507 1063.64 113.368C1063.89 113.224 1064.08 113.019 1064.22 112.752C1064.36 112.48 1064.44 112.165 1064.44 111.808ZM1068.4 114L1067.27 112.24L1066.19 114H1065.59L1067 111.816L1065.61 109.632H1066.24L1067.35 111.368L1068.43 109.632H1069.02L1067.63 111.792L1069.03 114H1068.4Z" fill="black"/>
<path d="M938.632 890.624L938.008 893.584H940.296V894.576H937.8L937.064 898H935.992L936.728 894.576H933.176L932.44 898H931.368L932.104 894.576H929.56V893.584H932.312L932.936 890.624H930.44V889.632H933.16L933.896 886.16H934.968L934.232 889.632H937.784L938.52 886.16H939.592L938.856 889.632H941.176V890.624H938.632ZM937.56 890.624H934.008L933.384 893.584H936.936L937.56 890.624ZM944.544 887.728V891.904H948.784V892.832H944.544V897.072H949.264V898H943.424V886.8H949.264V887.728H944.544ZM952.751 887.728V891.904H956.991V892.832H952.751V897.072H957.471V898H951.631V886.8H957.471V887.728H952.751ZM960.958 887.728V891.904H965.198V892.832H960.958V897.072H965.678V898H959.838V886.8H965.678V887.728H960.958ZM969.165 887.728V891.904H973.405V892.832H969.165V897.072H973.885V898H968.045V886.8H973.885V887.728H969.165ZM977.372 887.728V891.904H981.612V892.832H977.372V897.072H982.092V898H976.252V886.8H982.092V887.728H977.372ZM985.579 887.728V891.904H989.819V892.832H985.579V897.072H990.299V898H984.459V886.8H990.299V887.728H985.579Z" fill="black"/>
<path d="M880.88 966.04V983.64C880.88 986.413 881.533 988.467 882.84 989.8C884.173 991.133 885.987 991.8 888.28 991.8C890.573 991.8 892.36 991.147 893.64 989.84C894.947 988.507 895.6 986.44 895.6 983.64V966.04H898.4V983.6C898.4 987.147 897.453 989.813 895.56 991.6C893.693 993.387 891.253 994.28 888.24 994.28C885.227 994.28 882.773 993.387 880.88 991.6C879.013 989.813 878.08 987.147 878.08 983.6V966.04H880.88ZM907.805 976.96C908.499 975.493 909.592 974.28 911.085 973.32C912.605 972.333 914.405 971.84 916.485 971.84C918.459 971.84 920.232 972.307 921.805 973.24C923.405 974.147 924.645 975.453 925.525 977.16C926.432 978.84 926.885 980.8 926.885 983.04C926.885 985.28 926.432 987.253 925.525 988.96C924.645 990.667 923.405 991.987 921.805 992.92C920.232 993.853 918.459 994.32 916.485 994.32C914.432 994.32 912.645 993.84 911.125 992.88C909.605 991.893 908.499 990.667 907.805 989.2V1004.32H905.045V972.16H907.805V976.96ZM924.045 983.04C924.045 981.227 923.685 979.667 922.965 978.36C922.272 977.027 921.312 976.013 920.085 975.32C918.859 974.627 917.472 974.28 915.925 974.28C914.432 974.28 913.059 974.64 911.805 975.36C910.579 976.08 909.605 977.107 908.885 978.44C908.165 979.773 907.805 981.32 907.805 983.08C907.805 984.84 908.165 986.387 908.885 987.72C909.605 989.053 910.579 990.08 911.805 990.8C913.059 991.52 914.432 991.88 915.925 991.88C917.472 991.88 918.859 991.533 920.085 990.84C921.312 990.12 922.272 989.093 922.965 987.76C923.685 986.4 924.045 984.827 924.045 983.04ZM931.157 983.04C931.157 980.8 931.611 978.84 932.517 977.16C933.424 975.453 934.664 974.147 936.237 973.24C937.837 972.307 939.637 971.84 941.637 971.84C943.558 971.84 945.291 972.307 946.838 973.24C948.384 974.173 949.518 975.387 950.238 976.88V964.4H953.038V994H950.238V989.12C949.571 990.64 948.477 991.893 946.957 992.88C945.437 993.84 943.651 994.32 941.597 994.32C939.597 994.32 937.797 993.853 936.197 992.92C934.624 991.987 933.384 990.667 932.477 988.96C931.597 987.253 931.157 985.28 931.157 983.04ZM950.238 983.08C950.238 981.32 949.878 979.773 949.158 978.44C948.438 977.107 947.451 976.08 946.198 975.36C944.971 974.64 943.611 974.28 942.118 974.28C940.571 974.28 939.184 974.627 937.957 975.32C936.731 976.013 935.757 977.027 935.037 978.36C934.344 979.667 933.997 981.227 933.997 983.04C933.997 984.827 934.344 986.4 935.037 987.76C935.757 989.093 936.731 990.12 937.957 990.84C939.184 991.533 940.571 991.88 942.118 991.88C943.611 991.88 944.971 991.52 946.198 990.8C947.451 990.08 948.438 989.053 949.158 987.72C949.878 986.387 950.238 984.84 950.238 983.08ZM958.55 983.04C958.55 980.8 958.99 978.84 959.87 977.16C960.776 975.453 962.016 974.147 963.59 973.24C965.19 972.307 966.99 971.84 968.99 971.84C971.07 971.84 972.856 972.32 974.35 973.28C975.87 974.24 976.963 975.467 977.63 976.96V972.16H980.43V994H977.63V989.16C976.936 990.653 975.83 991.893 974.31 992.88C972.816 993.84 971.03 994.32 968.95 994.32C966.976 994.32 965.19 993.853 963.59 992.92C962.016 991.987 960.776 990.667 959.87 988.96C958.99 987.253 958.55 985.28 958.55 983.04ZM977.63 983.08C977.63 981.32 977.27 979.773 976.55 978.44C975.83 977.107 974.843 976.08 973.59 975.36C972.363 974.64 971.003 974.28 969.51 974.28C967.963 974.28 966.576 974.627 965.35 975.32C964.123 976.013 963.15 977.027 962.43 978.36C961.736 979.667 961.39 981.227 961.39 983.04C961.39 984.827 961.736 986.4 962.43 987.76C963.15 989.093 964.123 990.12 965.35 990.84C966.576 991.533 967.963 991.88 969.51 991.88C971.003 991.88 972.363 991.52 973.59 990.8C974.843 990.08 975.83 989.053 976.55 987.72C977.27 986.387 977.63 984.84 977.63 983.08ZM990.862 974.52V988.08C990.862 989.413 991.115 990.333 991.622 990.84C992.129 991.347 993.022 991.6 994.302 991.6H996.862V994H993.862C991.889 994 990.422 993.547 989.462 992.64C988.502 991.707 988.022 990.187 988.022 988.08V974.52H984.982V972.16H988.022V966.68H990.862V972.16H996.862V974.52H990.862ZM1021.64 981.96C1021.64 982.92 1021.61 983.653 1021.56 984.16H1003.44C1003.52 985.813 1003.92 987.227 1004.64 988.4C1005.36 989.573 1006.31 990.467 1007.48 991.08C1008.65 991.667 1009.93 991.96 1011.32 991.96C1013.13 991.96 1014.65 991.52 1015.88 990.64C1017.13 989.76 1017.96 988.573 1018.36 987.08H1021.32C1020.79 989.213 1019.64 990.96 1017.88 992.32C1016.15 993.653 1013.96 994.32 1011.32 994.32C1009.27 994.32 1007.43 993.867 1005.8 992.96C1004.17 992.027 1002.89 990.72 1001.96 989.04C1001.05 987.333 1000.6 985.347 1000.6 983.08C1000.6 980.813 1001.05 978.827 1001.96 977.12C1002.87 975.413 1004.13 974.107 1005.76 973.2C1007.39 972.293 1009.24 971.84 1011.32 971.84C1013.4 971.84 1015.21 972.293 1016.76 973.2C1018.33 974.107 1019.53 975.333 1020.36 976.88C1021.21 978.4 1021.64 980.093 1021.64 981.96ZM1018.8 981.88C1018.83 980.253 1018.49 978.867 1017.8 977.72C1017.13 976.573 1016.21 975.707 1015.04 975.12C1013.87 974.533 1012.59 974.24 1011.2 974.24C1009.12 974.24 1007.35 974.907 1005.88 976.24C1004.41 977.573 1003.6 979.453 1003.44 981.88H1018.8ZM1034.68 994.32C1032.18 994.32 1030.12 993.747 1028.52 992.6C1026.95 991.427 1026.07 989.84 1025.88 987.84H1028.76C1028.9 989.067 1029.47 990.067 1030.48 990.84C1031.52 991.587 1032.91 991.96 1034.64 991.96C1036.16 991.96 1037.35 991.6 1038.2 990.88C1039.08 990.16 1039.52 989.267 1039.52 988.2C1039.52 987.453 1039.28 986.84 1038.8 986.36C1038.32 985.88 1037.71 985.507 1036.96 985.24C1036.24 984.947 1035.26 984.64 1034 984.32C1032.38 983.893 1031.06 983.467 1030.04 983.04C1029.03 982.613 1028.16 981.987 1027.44 981.16C1026.75 980.307 1026.4 979.173 1026.4 977.76C1026.4 976.693 1026.72 975.707 1027.36 974.8C1028 973.893 1028.91 973.173 1030.08 972.64C1031.26 972.107 1032.59 971.84 1034.08 971.84C1036.43 971.84 1038.32 972.44 1039.76 973.64C1041.2 974.813 1041.98 976.44 1042.08 978.52H1039.28C1039.2 977.24 1038.7 976.213 1037.76 975.44C1036.86 974.64 1035.6 974.24 1034 974.24C1032.59 974.24 1031.44 974.573 1030.56 975.24C1029.68 975.907 1029.24 976.733 1029.24 977.72C1029.24 978.573 1029.5 979.28 1030 979.84C1030.54 980.373 1031.19 980.8 1031.96 981.12C1032.74 981.413 1033.78 981.747 1035.08 982.12C1036.66 982.547 1037.91 982.96 1038.84 983.36C1039.78 983.76 1040.58 984.347 1041.24 985.12C1041.91 985.893 1042.26 986.92 1042.28 988.2C1042.28 989.373 1041.96 990.427 1041.32 991.36C1040.68 992.267 1039.79 992.987 1038.64 993.52C1037.5 994.053 1036.18 994.32 1034.68 994.32Z" fill="black"/>
<path d="M1050.27 992.64V992.216L1053.18 988.296H1053.85V992.152H1054.7V992.64H1053.85V994H1053.3V992.64H1050.27ZM1053.32 988.912L1050.92 992.152H1053.32V988.912ZM1055.51 991.08C1055.51 990.163 1055.65 989.451 1055.93 988.944C1056.21 988.437 1056.72 988.184 1057.45 988.184C1058.18 988.184 1058.69 988.437 1058.97 988.944C1059.25 989.451 1059.39 990.163 1059.39 991.08C1059.39 992.013 1059.25 992.736 1058.97 993.248C1058.69 993.76 1058.18 994.016 1057.45 994.016C1056.71 994.016 1056.2 993.76 1055.92 993.248C1055.64 992.736 1055.51 992.013 1055.51 991.08ZM1058.84 991.08C1058.84 990.584 1058.81 990.165 1058.74 989.824C1058.67 989.483 1058.53 989.208 1058.33 989C1058.13 988.792 1057.83 988.688 1057.45 988.688C1057.07 988.688 1056.77 988.792 1056.57 989C1056.37 989.208 1056.23 989.483 1056.16 989.824C1056.09 990.165 1056.06 990.584 1056.06 991.08C1056.06 991.592 1056.09 992.021 1056.16 992.368C1056.23 992.709 1056.37 992.984 1056.57 993.192C1056.77 993.4 1057.07 993.504 1057.45 993.504C1057.83 993.504 1058.13 993.4 1058.33 993.192C1058.53 992.984 1058.67 992.709 1058.74 992.368C1058.81 992.021 1058.84 991.592 1058.84 991.08ZM1061.19 990.592C1061.33 990.299 1061.55 990.056 1061.84 989.864C1062.15 989.667 1062.51 989.568 1062.92 989.568C1063.32 989.568 1063.67 989.661 1063.99 989.848C1064.31 990.029 1064.56 990.291 1064.73 990.632C1064.91 990.968 1065 991.36 1065 991.808C1065 992.256 1064.91 992.651 1064.73 992.992C1064.56 993.333 1064.31 993.597 1063.99 993.784C1063.67 993.971 1063.32 994.064 1062.92 994.064C1062.51 994.064 1062.16 993.968 1061.85 993.776C1061.55 993.579 1061.33 993.333 1061.19 993.04V996.064H1060.64V989.632H1061.19V990.592ZM1064.44 991.808C1064.44 991.445 1064.36 991.133 1064.22 990.872C1064.08 990.605 1063.89 990.403 1063.64 990.264C1063.4 990.125 1063.12 990.056 1062.81 990.056C1062.51 990.056 1062.24 990.128 1061.99 990.272C1061.74 990.416 1061.55 990.621 1061.4 990.888C1061.26 991.155 1061.19 991.464 1061.19 991.816C1061.19 992.168 1061.26 992.477 1061.4 992.744C1061.55 993.011 1061.74 993.216 1061.99 993.36C1062.24 993.504 1062.51 993.576 1062.81 993.576C1063.12 993.576 1063.4 993.507 1063.64 993.368C1063.89 993.224 1064.08 993.019 1064.22 992.752C1064.36 992.48 1064.44 992.165 1064.44 991.808ZM1068.4 994L1067.27 992.24L1066.19 994H1065.59L1067 991.816L1065.61 989.632H1066.24L1067.35 991.368L1068.43 989.632H1069.02L1067.63 991.792L1069.03 994H1068.4Z" fill="black"/>
<line x1="960.5" y1="1080" x2="960.5" y2="1028" stroke="black" stroke-opacity="0.34"/>
<path d="M176.939 538.939C176.354 539.525 176.354 540.475 176.939 541.061L186.485 550.607C187.071 551.192 188.021 551.192 188.607 550.607C189.192 550.021 189.192 549.071 188.607 548.485L180.121 540L188.607 531.515C189.192 530.929 189.192 529.979 188.607 529.393C188.021 528.808 187.071 528.808 186.485 529.393L176.939 538.939ZM179 538.5L178 538.5L178 541.5L179 541.5L179 538.5Z" fill="black" fill-opacity="0.24"/>
<path d="M1747.06 541.061C1747.65 540.475 1747.65 539.525 1747.06 538.939L1737.51 529.393C1736.93 528.808 1735.98 528.808 1735.39 529.393C1734.81 529.979 1734.81 530.929 1735.39 531.515L1743.88 540L1735.39 548.485C1734.81 549.071 1734.81 550.021 1735.39 550.607C1735.98 551.192 1736.93 551.192 1737.51 550.607L1747.06 541.061ZM1745 541.5H1746V538.5H1745V541.5Z" fill="black" fill-opacity="0.34"/>
<line x1="1825" y1="48.5" x2="1865" y2="48.5" stroke="black" stroke-width="3"/>
<line x1="1863.5" y1="90" x2="1863.5" y2="50" stroke="black" stroke-width="3"/>
<line x1="53.5" y1="89.9999" x2="53.5" y2="49.9999" stroke="black" stroke-width="3"/>
<line x1="95" y1="51.4999" x2="55" y2="51.4999" stroke="black" stroke-width="3"/>
<line x1="103" y1="1031.5" x2="63" y2="1031.5" stroke="black" stroke-width="3"/>
<line x1="64.5" y1="990" x2="64.5" y2="1030" stroke="black" stroke-width="3"/>
<line x1="1866.5" y1="970" x2="1866.5" y2="1010" stroke="black" stroke-width="3"/>
<line x1="1825" y1="1008.5" x2="1865" y2="1008.5" stroke="black" stroke-width="3"/>
</svg>
