<svg width="1300" height="252" viewBox="0 0 1300 252" fill="none" xmlns="http://www.w3.org/2000/svg">
<path d="M11.877 141.404C11.877 123.214 15.515 107.271 22.791 93.575C30.281 79.665 40.553 68.965 53.607 61.475C66.661 53.985 81.641 50.24 98.547 50.24C119.947 50.24 137.602 55.376 151.512 65.648C165.636 75.706 175.159 90.151 180.081 108.983H140.598C137.388 100.209 132.252 93.361 125.19 88.439C118.128 83.517 109.247 81.056 98.547 81.056C83.567 81.056 71.583 86.406 62.595 97.106C53.821 107.592 49.434 122.358 49.434 141.404C49.434 160.45 53.821 175.323 62.595 186.023C71.583 196.723 83.567 202.073 98.547 202.073C119.733 202.073 133.75 192.764 140.598 174.146H180.081C174.945 192.122 165.315 206.46 151.191 217.16C137.067 227.646 119.519 232.889 98.547 232.889C81.641 232.889 66.661 229.144 53.607 221.654C40.553 213.95 30.281 203.25 22.791 189.554C15.515 175.644 11.877 159.594 11.877 141.404ZM296.479 232.889C279.787 232.889 264.7 229.144 251.218 221.654C237.736 213.95 227.143 203.25 219.439 189.554C211.735 175.644 207.883 159.594 207.883 141.404C207.883 123.428 211.842 107.485 219.76 93.575C227.678 79.665 238.485 68.965 252.181 61.475C265.877 53.985 281.178 50.24 298.084 50.24C314.99 50.24 330.291 53.985 343.987 61.475C357.683 68.965 368.49 79.665 376.408 93.575C384.326 107.485 388.285 123.428 388.285 141.404C388.285 159.38 384.219 175.323 376.087 189.233C367.955 203.143 356.827 213.95 342.703 221.654C328.793 229.144 313.385 232.889 296.479 232.889ZM296.479 201.11C305.895 201.11 314.669 198.863 322.801 194.369C331.147 189.875 337.888 183.134 343.024 174.146C348.16 165.158 350.728 154.244 350.728 141.404C350.728 128.564 348.267 117.757 343.345 108.983C338.423 99.995 331.896 93.254 323.764 88.76C315.632 84.266 306.858 82.019 297.442 82.019C288.026 82.019 279.252 84.266 271.12 88.76C263.202 93.254 256.889 99.995 252.181 108.983C247.473 117.757 245.119 128.564 245.119 141.404C245.119 160.45 249.934 175.216 259.564 185.702C269.408 195.974 281.713 201.11 296.479 201.11ZM516.908 50.24C530.818 50.24 543.23 53.129 554.144 58.907C565.272 64.685 573.939 73.245 580.145 84.587C586.351 95.929 589.454 109.625 589.454 125.675V230H553.181V131.132C553.181 115.296 549.222 103.205 541.304 94.859C533.386 86.299 522.579 82.019 508.883 82.019C495.187 82.019 484.273 86.299 476.141 94.859C468.223 103.205 464.264 115.296 464.264 131.132V230H427.67V53.129H464.264V73.352C470.256 66.076 477.853 60.405 487.055 56.339C496.471 52.273 506.422 50.24 516.908 50.24ZM682.035 82.982V180.887C682.035 187.521 683.533 192.336 686.529 195.332C689.739 198.114 695.089 199.505 702.579 199.505H725.049V230H696.159C679.681 230 667.055 226.148 658.281 218.444C649.507 210.74 645.12 198.221 645.12 180.887V82.982H624.255V53.129H645.12V9.15199H682.035V53.129H725.049V82.982H682.035ZM749.788 140.762C749.788 123 753.426 107.271 760.702 93.575C768.192 79.879 778.25 69.286 790.876 61.796C803.716 54.092 817.84 50.24 833.248 50.24C847.158 50.24 859.249 53.022 869.521 58.586C880.007 63.936 888.353 70.677 894.559 78.809V53.129H931.474V230H894.559V203.678C888.353 212.024 879.9 218.979 869.2 224.543C858.5 230.107 846.302 232.889 832.606 232.889C817.412 232.889 803.502 229.037 790.876 221.333C778.25 213.415 768.192 202.501 760.702 188.591C753.426 174.467 749.788 158.524 749.788 140.762ZM894.559 141.404C894.559 129.206 891.991 118.613 886.855 109.625C881.933 100.637 875.406 93.789 867.274 89.081C859.142 84.373 850.368 82.019 840.952 82.019C831.536 82.019 822.762 84.373 814.63 89.081C806.498 93.575 799.864 100.316 794.728 109.304C789.806 118.078 787.345 128.564 787.345 140.762C787.345 152.96 789.806 163.66 794.728 172.862C799.864 182.064 806.498 189.126 814.63 194.048C822.976 198.756 831.75 201.11 840.952 201.11C850.368 201.11 859.142 198.756 867.274 194.048C875.406 189.34 881.933 182.492 886.855 173.504C891.991 164.302 894.559 153.602 894.559 141.404ZM970.551 141.404C970.551 123.214 974.189 107.271 981.465 93.575C988.955 79.665 999.227 68.965 1012.28 61.475C1025.34 53.985 1040.32 50.24 1057.22 50.24C1078.62 50.24 1096.28 55.376 1110.19 65.648C1124.31 75.706 1133.83 90.151 1138.76 108.983H1099.27C1096.06 100.209 1090.93 93.361 1083.86 88.439C1076.8 83.517 1067.92 81.056 1057.22 81.056C1042.24 81.056 1030.26 86.406 1021.27 97.106C1012.5 107.592 1008.11 122.358 1008.11 141.404C1008.11 160.45 1012.5 175.323 1021.27 186.023C1030.26 196.723 1042.24 202.073 1057.22 202.073C1078.41 202.073 1092.42 192.764 1099.27 174.146H1138.76C1133.62 192.122 1123.99 206.46 1109.87 217.16C1095.74 227.646 1078.19 232.889 1057.22 232.889C1040.32 232.889 1025.34 229.144 1012.28 221.654C999.227 213.95 988.955 203.25 981.465 189.554C974.189 175.644 970.551 159.594 970.551 141.404ZM1221.13 82.982V180.887C1221.13 187.521 1222.62 192.336 1225.62 195.332C1228.83 198.114 1234.18 199.505 1241.67 199.505H1264.14V230H1235.25C1218.77 230 1206.15 226.148 1197.37 218.444C1188.6 210.74 1184.21 198.221 1184.21 180.887V82.982H1163.35V53.129H1184.21V9.15199H1221.13V53.129H1264.14V82.982H1221.13Z" fill="black"/>
<path d="M48.791 109.575L47.9105 109.101L47.9079 109.106L48.791 109.575ZM79.607 77.475L79.1093 76.6076L79.607 77.475ZM177.512 81.648L176.918 82.4524L176.925 82.4576L176.932 82.4626L177.512 81.648ZM206.081 124.983V125.983H207.376L207.049 124.73L206.081 124.983ZM166.598 124.983L165.659 125.327L165.899 125.983H166.598V124.983ZM88.595 113.106L87.8293 112.463L87.8281 112.464L88.595 113.106ZM88.595 202.023L87.8217 202.657L87.8293 202.666L88.595 202.023ZM166.598 190.146V189.146H165.9L165.659 189.801L166.598 190.146ZM206.081 190.146L207.043 190.421L207.407 189.146H206.081V190.146ZM177.191 233.16L177.787 233.963L177.795 233.957L177.191 233.16ZM79.607 237.654L79.0987 238.515L79.1093 238.521L79.607 237.654ZM48.791 205.554L47.9049 206.018L47.9092 206.026L47.9136 206.034L48.791 205.554ZM38.877 157.404C38.877 139.349 42.4871 123.573 49.6741 110.044L47.9079 109.106C40.5429 122.969 36.877 139.079 36.877 157.404H38.877ZM49.6715 110.049C57.0777 96.2948 67.2207 85.7348 80.1047 78.3424L79.1093 76.6076C65.8853 84.1952 55.4844 95.0352 47.9105 109.101L49.6715 110.049ZM80.1047 78.3424C92.9892 70.9496 107.794 67.24 124.547 67.24V65.24C107.488 65.24 92.3328 69.0204 79.1093 76.6076L80.1047 78.3424ZM124.547 67.24C145.785 67.24 163.217 72.335 176.918 82.4524L178.106 80.8436C163.987 70.417 146.109 65.24 124.547 65.24V67.24ZM176.932 82.4626C190.841 92.3678 200.243 106.601 205.114 125.236L207.049 124.73C202.075 105.701 192.431 91.0442 178.092 80.8334L176.932 82.4626ZM206.081 123.983H166.598V125.983H206.081V123.983ZM167.537 124.639C164.263 115.69 159.007 108.668 151.762 103.619L150.618 105.259C157.497 110.054 162.513 116.728 165.659 125.327L167.537 124.639ZM151.762 103.619C144.495 98.554 135.401 96.056 124.547 96.056V98.056C135.093 98.056 143.761 100.48 150.618 105.259L151.762 103.619ZM124.547 96.056C109.296 96.056 97.0224 101.519 87.8293 112.463L89.3607 113.749C98.1437 103.293 109.838 98.056 124.547 98.056V96.056ZM87.8281 112.464C78.8537 123.19 74.434 138.215 74.434 157.404H76.434C76.434 138.501 80.7883 123.994 89.3619 113.748L87.8281 112.464ZM74.434 157.404C74.434 176.595 78.8544 191.721 87.8217 202.657L89.3683 201.389C80.7876 190.925 76.434 176.305 76.434 157.404H74.434ZM87.8293 202.666C97.0224 213.61 109.296 219.073 124.547 219.073V217.073C109.838 217.073 98.1437 211.836 89.3607 201.38L87.8293 202.666ZM124.547 219.073C135.286 219.073 144.292 216.713 151.502 211.924C158.718 207.132 164.053 199.963 167.537 190.491L165.659 189.801C162.295 198.947 157.197 205.741 150.396 210.258C143.589 214.779 134.994 217.073 124.547 217.073V219.073ZM166.598 191.146H206.081V189.146H166.598V191.146ZM205.119 189.871C200.039 207.651 190.529 221.801 176.587 232.363L177.795 233.957C192.101 223.119 201.851 208.593 207.043 190.421L205.119 189.871ZM176.595 232.357C162.675 242.692 145.347 247.889 124.547 247.889V249.889C145.691 249.889 163.459 244.6 177.787 233.963L176.595 232.357ZM124.547 247.889C107.794 247.889 92.9892 244.179 80.1047 236.787L79.1093 238.521C92.3328 246.109 107.488 249.889 124.547 249.889V247.889ZM80.1153 236.793C67.2212 229.183 57.0746 218.617 49.6684 205.074L47.9136 206.034C55.4874 219.883 65.8848 230.717 79.0988 238.515L80.1153 236.793ZM49.6771 205.09C42.487 191.345 38.877 175.458 38.877 157.404H36.877C36.877 175.73 40.543 191.943 47.9049 206.018L49.6771 205.09ZM277.218 237.654L276.721 238.522L276.732 238.528L277.218 237.654ZM245.439 205.554L244.564 206.039L244.567 206.044L245.439 205.554ZM278.181 77.475L277.701 76.5976L278.181 77.475ZM369.987 77.475L370.466 76.5976L369.987 77.475ZM402.087 205.233L401.223 204.728L402.087 205.233ZM368.703 237.654L369.177 238.534L369.181 238.532L368.703 237.654ZM348.801 210.369L348.327 209.488L348.317 209.494L348.801 210.369ZM369.024 190.146L368.155 189.65L369.024 190.146ZM369.345 124.983L368.467 125.463L368.472 125.472L369.345 124.983ZM297.12 104.76L296.636 103.885L296.626 103.89L297.12 104.76ZM278.181 124.983L279.062 125.456L279.066 125.447L278.181 124.983ZM285.564 201.702L284.827 202.378L284.834 202.386L284.842 202.394L285.564 201.702ZM322.479 247.889C305.942 247.889 291.025 244.181 277.703 236.78L276.732 238.528C290.375 246.107 305.631 249.889 322.479 249.889V247.889ZM277.714 236.786C264.391 229.173 253.927 218.604 246.31 205.064L244.567 206.044C252.359 219.896 263.08 230.727 276.721 238.522L277.714 236.786ZM246.313 205.07C238.703 191.328 234.883 175.449 234.883 157.404H232.883C232.883 175.739 236.767 191.96 244.564 206.038L246.313 205.07ZM234.883 157.404C234.883 139.58 238.807 123.811 246.629 110.07L244.891 109.08C236.877 123.159 232.883 139.276 232.883 157.404H234.883ZM246.629 110.07C254.457 96.3166 265.131 85.751 278.66 78.3524L277.701 76.5976C263.838 84.179 252.898 95.0134 244.891 109.08L246.629 110.07ZM278.66 78.3524C292.197 70.9494 307.331 67.24 324.084 67.24V65.24C307.024 65.24 291.556 69.0206 277.701 76.5976L278.66 78.3524ZM324.084 67.24C340.836 67.24 355.97 70.9494 369.507 78.3524L370.466 76.5976C356.611 69.0206 341.143 65.24 324.084 65.24V67.24ZM369.507 78.3524C383.036 85.751 393.71 96.3166 401.539 110.07L403.277 109.08C395.269 95.0134 384.329 84.179 370.466 76.5976L369.507 78.3524ZM401.539 110.07C409.361 123.811 413.285 139.58 413.285 157.404H415.285C415.285 139.276 411.291 123.159 403.277 109.08L401.539 110.07ZM413.285 157.404C413.285 175.224 409.256 190.989 401.223 204.728L402.95 205.738C411.181 191.657 415.285 175.536 415.285 157.404H413.285ZM401.223 204.728C393.183 218.481 382.188 229.159 368.224 236.776L369.181 238.532C383.465 230.741 394.726 219.805 402.95 205.738L401.223 204.728ZM368.229 236.774C354.474 244.18 339.231 247.889 322.479 247.889V249.889C339.538 249.889 355.111 246.108 369.177 238.534L368.229 236.774ZM322.479 218.11C332.061 218.11 341.002 215.821 349.284 211.244L348.317 209.494C340.335 213.905 331.728 216.11 322.479 216.11V218.11ZM349.275 211.249C357.801 206.659 364.672 199.777 369.892 190.642L368.155 189.65C363.103 198.491 356.493 205.091 348.327 209.489L349.275 211.249ZM369.892 190.642C375.133 181.471 377.728 170.377 377.728 157.404H375.728C375.728 170.111 373.187 180.845 368.155 189.65L369.892 190.642ZM377.728 157.404C377.728 144.439 375.243 133.453 370.217 124.494L368.472 125.472C373.291 134.061 375.728 144.689 375.728 157.404H377.728ZM370.222 124.503C365.218 115.366 358.562 108.48 350.247 103.885L349.28 105.635C357.229 110.028 363.627 116.624 368.468 125.463L370.222 124.503ZM350.247 103.885C341.965 99.3078 333.024 97.019 323.442 97.019V99.019C332.691 99.019 341.298 101.224 349.28 105.635L350.247 103.885ZM323.442 97.019C313.859 97.019 304.918 99.3078 296.636 103.885L297.603 105.635C305.585 101.224 314.192 99.019 323.442 99.019V97.019ZM296.626 103.89C288.522 108.49 282.081 115.381 277.295 124.519L279.066 125.447C283.696 116.609 289.881 110.018 297.613 105.63L296.626 103.89ZM277.299 124.51C272.494 133.466 270.119 144.445 270.119 157.404H272.119C272.119 144.683 274.451 134.048 279.062 125.456L277.299 124.51ZM270.119 157.404C270.119 176.614 274.977 191.653 284.827 202.378L286.3 201.026C276.89 190.779 272.119 176.286 272.119 157.404H270.119ZM284.842 202.394C294.882 212.871 307.452 218.11 322.479 218.11V216.11C307.974 216.11 295.933 211.077 286.286 201.01L284.842 202.394ZM580.144 74.907L579.676 75.7908L579.683 75.7945L580.144 74.907ZM606.145 100.587L605.268 101.067L606.145 100.587ZM615.454 246V247H616.454V246H615.454ZM579.181 246H578.181V247H579.181V246ZM567.304 110.859L566.57 111.538L566.578 111.547L567.304 110.859ZM502.141 110.859L501.416 110.17L501.415 110.171L502.141 110.859ZM490.264 246V247H491.264V246H490.264ZM453.67 246H452.67V247H453.67V246ZM453.67 69.129V68.129H452.67V69.129H453.67ZM490.264 69.129H491.264V68.129H490.264V69.129ZM490.264 89.352H489.264V92.1393L491.036 89.9877L490.264 89.352ZM513.055 72.339L512.658 71.4209L512.651 71.4243L513.055 72.339ZM542.908 67.24C556.676 67.24 568.923 70.0983 579.676 75.7908L580.612 74.0232C569.536 68.1597 556.96 65.24 542.908 65.24V67.24ZM579.683 75.7945C590.629 81.478 599.154 89.8934 605.268 101.067L607.022 100.107C600.724 88.5966 591.915 79.8919 580.605 74.0195L579.683 75.7945ZM605.268 101.067C611.376 112.23 614.454 125.753 614.454 141.675H616.454C616.454 125.497 613.326 111.628 607.022 100.107L605.268 101.067ZM614.454 141.675V246H616.454V141.675H614.454ZM615.454 245H579.181V247H615.454V245ZM580.181 246V147.132H578.181V246H580.181ZM580.181 147.132C580.181 131.138 576.181 118.763 568.029 110.171L566.578 111.547C574.263 119.647 578.181 131.454 578.181 147.132H580.181ZM568.038 110.18C559.897 101.379 548.804 97.019 534.883 97.019V99.019C548.353 99.019 558.874 103.219 566.57 111.538L568.038 110.18ZM534.883 97.019C520.961 97.019 509.767 101.379 501.416 110.17L502.866 111.548C510.778 103.219 521.413 99.019 534.883 99.019V97.019ZM501.415 110.171C493.264 118.763 489.264 131.138 489.264 147.132H491.264C491.264 131.454 495.182 119.647 502.866 111.547L501.415 110.171ZM489.264 147.132V246H491.264V147.132H489.264ZM490.264 245H453.67V247H490.264V245ZM454.67 246V69.129H452.67V246H454.67ZM453.67 70.129H490.264V68.129H453.67V70.129ZM489.264 69.129V89.352H491.264V69.129H489.264ZM491.036 89.9877C496.922 82.8401 504.39 77.261 513.459 73.2537L512.651 71.4243C503.316 75.549 495.59 81.3118 489.492 88.7163L491.036 89.9877ZM513.451 73.2571C522.739 69.2463 532.555 67.24 542.908 67.24V65.24C532.289 65.24 522.202 67.2997 512.658 71.4209L513.451 73.2571ZM708.035 98.982V97.982H707.035V98.982H708.035ZM712.529 211.332L711.822 212.039L711.847 212.064L711.874 212.088L712.529 211.332ZM751.049 215.505H752.049V214.505H751.049V215.505ZM751.049 246V247H752.049V246H751.049ZM684.281 234.444L683.621 235.195L684.281 234.444ZM671.12 98.982H672.12V97.982H671.12V98.982ZM650.255 98.982H649.255V99.982H650.255V98.982ZM650.255 69.129V68.129H649.255V69.129H650.255ZM671.12 69.129V70.129H672.12V69.129H671.12ZM671.12 25.152V24.152H670.12V25.152H671.12ZM708.035 25.152H709.035V24.152H708.035V25.152ZM708.035 69.129H707.035V70.129H708.035V69.129ZM751.049 69.129H752.049V68.129H751.049V69.129ZM751.049 98.982V99.982H752.049V98.982H751.049ZM707.035 98.982V196.887H709.035V98.982H707.035ZM707.035 196.887C707.035 203.641 708.555 208.773 711.822 212.039L713.236 210.625C710.51 207.899 709.035 203.401 709.035 196.887H707.035ZM711.874 212.088C715.361 215.11 721.014 216.505 728.579 216.505V214.505C721.163 214.505 716.117 213.118 713.184 210.576L711.874 212.088ZM728.579 216.505H751.049V214.505H728.579V216.505ZM750.049 215.505V246H752.049V215.505H750.049ZM751.049 245H722.159V247H751.049V245ZM722.159 245C705.824 245 693.469 241.181 684.941 233.693L683.621 235.195C692.64 243.115 705.537 247 722.159 247V245ZM684.941 233.693C676.47 226.255 672.12 214.074 672.12 196.887H670.12C670.12 214.368 674.543 227.225 683.621 235.195L684.941 233.693ZM672.12 196.887V98.982H670.12V196.887H672.12ZM671.12 97.982H650.255V99.982H671.12V97.982ZM651.255 98.982V69.129H649.255V98.982H651.255ZM650.255 70.129H671.12V68.129H650.255V70.129ZM672.12 69.129V25.152H670.12V69.129H672.12ZM671.12 26.152H708.035V24.152H671.12V26.152ZM707.035 25.152V69.129H709.035V25.152H707.035ZM708.035 70.129H751.049V68.129H708.035V70.129ZM750.049 69.129V98.982H752.049V69.129H750.049ZM751.049 97.982H708.035V99.982H751.049V97.982ZM786.702 109.575L785.825 109.095L785.819 109.106L786.702 109.575ZM816.876 77.796L817.387 78.656L817.391 78.6535L816.876 77.796ZM895.521 74.586L895.045 75.4653L895.056 75.4711L895.067 75.4767L895.521 74.586ZM920.559 94.809L919.764 95.4157L921.559 97.7677V94.809H920.559ZM920.559 69.129V68.129H919.559V69.129H920.559ZM957.474 69.129H958.474V68.129H957.474V69.129ZM957.474 246V247H958.474V246H957.474ZM920.559 246H919.559V247H920.559V246ZM920.559 219.678H921.559V216.657L919.757 219.081L920.559 219.678ZM895.2 240.543L894.739 239.656L895.2 240.543ZM816.876 237.333L816.345 238.18L816.355 238.187L816.876 237.333ZM786.702 204.591L785.813 205.049L785.818 205.057L785.822 205.065L786.702 204.591ZM912.855 125.625L911.978 126.105L911.983 126.113L911.987 126.121L912.855 125.625ZM893.274 105.081L892.773 105.946L893.274 105.081ZM840.63 105.081L841.114 105.956L841.123 105.951L841.131 105.946L840.63 105.081ZM820.728 125.304L819.86 124.808L819.856 124.815L820.728 125.304ZM820.728 188.862L819.847 189.334L819.851 189.342L819.855 189.349L820.728 188.862ZM840.63 210.048L840.112 210.904L840.126 210.911L840.139 210.919L840.63 210.048ZM893.274 210.048L893.775 210.913L893.274 210.048ZM912.855 189.504L911.982 189.017L911.978 189.024L912.855 189.504ZM776.788 156.762C776.788 139.14 780.397 123.576 787.585 110.044L785.819 109.106C778.456 122.966 774.788 138.86 774.788 156.762H776.788ZM787.58 110.055C794.989 96.5058 804.925 86.0487 817.387 78.656L816.366 76.9359C803.576 84.5233 793.395 95.2522 785.825 109.095L787.58 110.055ZM817.391 78.6535C830.071 71.0455 844.016 67.24 859.248 67.24V65.24C843.665 65.24 829.362 69.1385 816.362 76.9385L817.391 78.6535ZM859.248 67.24C873.024 67.24 884.945 69.9943 895.045 75.4653L895.998 73.7067C885.554 68.0497 873.293 65.24 859.248 65.24V67.24ZM895.067 75.4767C905.44 80.769 913.662 87.4194 919.764 95.4157L921.354 94.2023C915.045 85.9346 906.575 79.103 895.976 73.6952L895.067 75.4767ZM921.559 94.809V69.129H919.559V94.809H921.559ZM920.559 70.129H957.474V68.129H920.559V70.129ZM956.474 69.129V246H958.474V69.129H956.474ZM957.474 245H920.559V247H957.474V245ZM921.559 246V219.678H919.559V246H921.559ZM919.757 219.081C913.654 227.288 905.326 234.15 894.739 239.656L895.662 241.43C906.474 235.808 915.052 228.76 921.362 220.275L919.757 219.081ZM894.739 239.656C884.2 245.136 872.164 247.889 858.606 247.889V249.889C872.441 249.889 884.801 247.078 895.662 241.43L894.739 239.656ZM858.606 247.889C843.591 247.889 829.862 244.085 817.397 236.479L816.355 238.187C829.143 245.989 843.234 249.889 858.606 249.889V247.889ZM817.408 236.486C804.937 228.665 794.996 217.884 787.583 204.117L785.822 205.065C793.389 219.118 803.563 230.165 816.345 238.18L817.408 236.486ZM787.591 204.133C780.396 190.167 776.788 174.384 776.788 156.762H774.788C774.788 174.664 778.456 190.767 785.813 205.049L787.591 204.133ZM921.559 157.404C921.559 145.063 918.96 134.293 913.724 125.129L911.987 126.121C917.022 134.933 919.559 145.349 919.559 157.404H921.559ZM913.732 125.145C908.731 116.011 902.08 109.023 893.775 104.216L892.773 105.946C900.733 110.555 907.136 117.263 911.978 126.105L913.732 125.145ZM893.775 104.216C885.491 99.4192 876.544 97.019 866.952 97.019V99.019C876.193 99.019 884.794 101.327 892.773 105.946L893.775 104.216ZM866.952 97.019C857.361 97.019 848.414 99.4192 840.129 104.216L841.131 105.946C849.111 101.327 857.712 99.019 866.952 99.019V97.019ZM840.147 104.206C831.836 108.798 825.076 115.679 819.86 124.808L821.597 125.8C826.652 116.953 833.16 110.352 841.114 105.956L840.147 104.206ZM819.856 124.815C814.834 133.767 812.345 144.429 812.345 156.762H814.345C814.345 144.699 816.778 134.389 821.6 125.793L819.856 124.815ZM812.345 156.762C812.345 169.097 814.835 179.964 819.847 189.334L821.61 188.39C816.778 179.356 814.345 168.823 814.345 156.762H812.345ZM819.855 189.349C825.066 198.686 831.816 205.882 840.112 210.904L841.148 209.193C833.18 204.37 826.662 197.442 821.602 188.375L819.855 189.349ZM840.139 210.919C848.628 215.708 857.571 218.11 866.952 218.11V216.11C857.93 216.11 849.324 213.804 841.122 209.177L840.139 210.919ZM866.952 218.11C876.544 218.11 885.491 215.71 893.775 210.913L892.773 209.183C884.794 213.802 876.193 216.11 866.952 216.11V218.11ZM893.775 210.913C902.08 206.106 908.731 199.118 913.732 189.984L911.978 189.024C907.136 197.866 900.733 204.574 892.773 209.183L893.775 210.913ZM913.729 189.991C918.96 180.618 921.559 169.745 921.559 157.404H919.559C919.559 169.458 917.023 179.986 911.982 189.017L913.729 189.991ZM1007.47 109.575L1006.58 109.101L1006.58 109.106L1007.47 109.575ZM1038.28 77.475L1037.78 76.6076L1038.28 77.475ZM1136.19 81.648L1135.59 82.4524L1135.6 82.4576L1135.61 82.4626L1136.19 81.648ZM1164.76 124.983V125.983H1166.05L1165.72 124.73L1164.76 124.983ZM1125.27 124.983L1124.33 125.327L1124.57 125.983H1125.27V124.983ZM1047.27 113.106L1046.5 112.463L1046.5 112.464L1047.27 113.106ZM1047.27 202.023L1046.5 202.657L1046.5 202.666L1047.27 202.023ZM1125.27 190.146V189.146H1124.57L1124.33 189.801L1125.27 190.146ZM1164.76 190.146L1165.72 190.421L1166.08 189.146H1164.76V190.146ZM1135.86 233.16L1136.46 233.963L1136.47 233.957L1135.86 233.16ZM1038.28 237.654L1037.77 238.515L1037.78 238.521L1038.28 237.654ZM1007.47 205.554L1006.58 206.018L1006.58 206.026L1006.59 206.034L1007.47 205.554ZM997.551 157.404C997.551 139.349 1001.16 123.573 1008.35 110.044L1006.58 109.106C999.217 122.969 995.551 139.079 995.551 157.404H997.551ZM1008.35 110.049C1015.75 96.2948 1025.89 85.7348 1038.78 78.3424L1037.78 76.6076C1024.56 84.1952 1014.16 95.0352 1006.58 109.101L1008.35 110.049ZM1038.78 78.3424C1051.66 70.9496 1066.47 67.24 1083.22 67.24V65.24C1066.16 65.24 1051.01 69.0204 1037.78 76.6076L1038.78 78.3424ZM1083.22 67.24C1104.46 67.24 1121.89 72.335 1135.59 82.4524L1136.78 80.8436C1122.66 70.417 1104.78 65.24 1083.22 65.24V67.24ZM1135.61 82.4626C1149.52 92.3678 1158.92 106.601 1163.79 125.236L1165.72 124.73C1160.75 105.701 1151.1 91.0442 1136.77 80.8334L1135.61 82.4626ZM1164.76 123.983H1125.27V125.983H1164.76V123.983ZM1126.21 124.639C1122.94 115.69 1117.68 108.668 1110.44 103.619L1109.29 105.259C1116.17 110.054 1121.19 116.728 1124.33 125.327L1126.21 124.639ZM1110.44 103.619C1103.17 98.554 1094.08 96.056 1083.22 96.056V98.056C1093.77 98.056 1102.43 100.48 1109.29 105.259L1110.44 103.619ZM1083.22 96.056C1067.97 96.056 1055.7 101.519 1046.5 112.463L1048.03 113.749C1056.82 103.293 1068.51 98.056 1083.22 98.056V96.056ZM1046.5 112.464C1037.53 123.19 1033.11 138.215 1033.11 157.404H1035.11C1035.11 138.501 1039.46 123.994 1048.04 113.748L1046.5 112.464ZM1033.11 157.404C1033.11 176.595 1037.53 191.721 1046.5 202.657L1048.04 201.389C1039.46 190.925 1035.11 176.305 1035.11 157.404H1033.11ZM1046.5 202.666C1055.7 213.61 1067.97 219.073 1083.22 219.073V217.073C1068.51 217.073 1056.82 211.836 1048.03 201.38L1046.5 202.666ZM1083.22 219.073C1093.96 219.073 1102.97 216.713 1110.18 211.924C1117.39 207.132 1122.73 199.963 1126.21 190.491L1124.33 189.801C1120.97 198.947 1115.87 205.741 1109.07 210.258C1102.26 214.779 1093.67 217.073 1083.22 217.073V219.073ZM1125.27 191.146H1164.76V189.146H1125.27V191.146ZM1163.79 189.871C1158.71 207.651 1149.2 221.801 1135.26 232.363L1136.47 233.957C1150.78 223.119 1160.52 208.593 1165.72 190.421L1163.79 189.871ZM1135.27 232.357C1121.35 242.692 1104.02 247.889 1083.22 247.889V249.889C1104.37 249.889 1122.13 244.6 1136.46 233.963L1135.27 232.357ZM1083.22 247.889C1066.47 247.889 1051.66 244.179 1038.78 236.787L1037.78 238.521C1051.01 246.109 1066.16 249.889 1083.22 249.889V247.889ZM1038.79 236.793C1025.9 229.183 1015.75 218.617 1008.34 205.074L1006.59 206.034C1014.16 219.883 1024.56 230.717 1037.77 238.515L1038.79 236.793ZM1008.35 205.09C1001.16 191.345 997.551 175.458 997.551 157.404H995.551C995.551 175.73 999.217 191.943 1006.58 206.018L1008.35 205.09ZM1247.13 98.982V97.982H1246.13V98.982H1247.13ZM1251.62 211.332L1250.91 212.039L1250.94 212.064L1250.97 212.088L1251.62 211.332ZM1290.14 215.505H1291.14V214.505H1290.14V215.505ZM1290.14 246V247H1291.14V246H1290.14ZM1223.37 234.444L1222.71 235.195L1223.37 234.444ZM1210.21 98.982H1211.21V97.982H1210.21V98.982ZM1189.35 98.982H1188.35V99.982H1189.35V98.982ZM1189.35 69.129V68.129H1188.35V69.129H1189.35ZM1210.21 69.129V70.129H1211.21V69.129H1210.21ZM1210.21 25.152V24.152H1209.21V25.152H1210.21ZM1247.13 25.152H1248.13V24.152H1247.13V25.152ZM1247.13 69.129H1246.13V70.129H1247.13V69.129ZM1290.14 69.129H1291.14V68.129H1290.14V69.129ZM1290.14 98.982V99.982H1291.14V98.982H1290.14ZM1246.13 98.982V196.887H1248.13V98.982H1246.13ZM1246.13 196.887C1246.13 203.641 1247.65 208.773 1250.91 212.039L1252.33 210.625C1249.6 207.899 1248.13 203.401 1248.13 196.887H1246.13ZM1250.97 212.088C1254.45 215.11 1260.11 216.505 1267.67 216.505V214.505C1260.26 214.505 1255.21 213.118 1252.28 210.576L1250.97 212.088ZM1267.67 216.505H1290.14V214.505H1267.67V216.505ZM1289.14 215.505V246H1291.14V215.505H1289.14ZM1290.14 245H1261.25V247H1290.14V245ZM1261.25 245C1244.92 245 1232.56 241.181 1224.03 233.693L1222.71 235.195C1231.73 243.115 1244.63 247 1261.25 247V245ZM1224.03 233.693C1215.56 226.255 1211.21 214.074 1211.21 196.887H1209.21C1209.21 214.368 1213.64 227.225 1222.71 235.195L1224.03 233.693ZM1211.21 196.887V98.982H1209.21V196.887H1211.21ZM1210.21 97.982H1189.35V99.982H1210.21V97.982ZM1190.35 98.982V69.129H1188.35V98.982H1190.35ZM1189.35 70.129H1210.21V68.129H1189.35V70.129ZM1211.21 69.129V25.152H1209.21V69.129H1211.21ZM1210.21 26.152H1247.13V24.152H1210.21V26.152ZM1246.13 25.152V69.129H1248.13V25.152H1246.13ZM1247.13 70.129H1290.14V68.129H1247.13V70.129ZM1289.14 69.129V98.982H1291.14V69.129H1289.14ZM1290.14 97.982H1247.13V99.982H1290.14V97.982Z" fill="black"/>
</svg>
